<?xml version="1.0" encoding="utf-8"?>
<!-- Generator: Adobe Illustrator 23.0.1, SVG Export Plug-In . SVG Version: 6.00 Build 0)  -->
<svg version="1.1" id="Layer_1" xmlns="http://www.w3.org/2000/svg" xmlns:xlink="http://www.w3.org/1999/xlink" x="0px" y="0px"
	 viewBox="0 0 500 500" style="enable-background:new 0 0 500 500;" xml:space="preserve">
<style type="text/css">
	.st0{fill:#222833;}
	.st1{fill:#CEEEAB;}
	.st2{clip-path:url(#SVGID_2_);}
	.st3{fill:#A6DD8B;}
	.st4{fill:#AAC3E7;}
	
		.st5{opacity:0.387;fill:none;stroke:#6D7F42;stroke-width:1.3299;stroke-linecap:round;stroke-linejoin:round;enable-background:new    ;}
	.st6{clip-path:url(#SVGID_4_);}
	.st7{opacity:0.387;fill:none;stroke:#6D7F42;stroke-width:1.3299;enable-background:new    ;}
	.st8{clip-path:url(#SVGID_6_);}
	.st9{fill:none;stroke:#D38484;stroke-width:2.6598;stroke-linecap:round;}
	.st10{opacity:3.913042e-02;fill:url(#path3834-49_1_);enable-background:new    ;}
	.st11{opacity:0.2696;}
	.st12{fill:url(#path3834-4-9_1_);}
	.st13{fill:url(#path3834-7-2-4-9_1_);}
	.st14{fill:url(#path3834-7-26-9-7_1_);}
	.st15{fill:url(#path3834-4-9-6_1_);}
	.st16{fill:url(#path3834-7-26-0-0-9_1_);}
	.st17{fill:url(#path3834-7-2-4-3_1_);}
	.st18{fill:url(#path3834-7-26-9-85_1_);}
	.st19{fill:url(#path3834-7-26-0-0-3_1_);}
	.st20{opacity:4.347827e-02;}
	.st21{fill:url(#path3834-4-9-1_1_);}
	.st22{fill:url(#path3834-7-26-0-0-7_1_);}
	.st23{fill:url(#path3834-7-2-4-6_1_);}
	.st24{fill:url(#path3834-7-26-9-8_1_);}
	.st25{fill:url(#path3834-4-9-2_1_);}
	.st26{fill:url(#path3834-7-26-0-0-0_1_);}
	.st27{fill:url(#path3834-7-26-9-9_1_);}
	.st28{fill:url(#path3834-7-2-4-5_1_);}
	.st29{fill:url(#SVGID_7_);}
	.st30{fill:url(#SVGID_8_);}
	.st31{fill:url(#SVGID_9_);}
	.st32{fill:url(#SVGID_10_);}
	.st33{fill:#2D3335;}
	.st34{clip-path:url(#SVGID_12_);}
	.st35{fill:#0F0F0F;}
	.st36{fill:#FFEC00;}
	.st37{fill:#D30000;}
	.st38{fill:url(#SVGID_13_);}
	.st39{opacity:0.6043;fill:url(#path6587_1_);enable-background:new    ;}
</style>
<g>
	<g>
		<g>
			<path class="st0" d="M57.3,400.9c-2.9,0-5.6-0.6-8-1.7s-4.5-2.7-6.2-4.5c-1.7-1.9-3-4-4-6.4s-1.4-4.9-1.4-7.5s0.5-5.1,1.5-7.5
				s2.3-4.5,4.1-6.4c1.8-1.8,3.8-3.3,6.3-4.4c2.4-1.1,5-1.6,7.9-1.6s5.6,0.6,8,1.7c2.4,1.1,4.5,2.7,6.2,4.6s3,4,3.9,6.5
				s1.4,4.9,1.4,7.3c0,2.6-0.5,5.1-1.5,7.5s-2.3,4.5-4.1,6.4c-1.7,1.8-3.8,3.3-6.2,4.4C62.8,400.4,60.1,400.9,57.3,400.9z M47,380.9
				c0,1.5,0.2,3,0.7,4.4c0.4,1.4,1.1,2.7,2,3.8c0.9,1.1,2,2,3.3,2.7s2.8,1,4.5,1s3.3-0.4,4.6-1.1s2.4-1.6,3.2-2.8
				c0.8-1.1,1.5-2.4,1.9-3.8s0.6-2.9,0.6-4.4s-0.2-3-0.7-4.4c-0.4-1.4-1.1-2.7-2-3.8s-2-2-3.3-2.6s-2.8-1-4.4-1
				c-1.7,0-3.3,0.3-4.5,1s-2.3,1.6-3.2,2.7s-1.5,2.4-2,3.8C47.2,378,47,379.4,47,380.9z"/>
			<path class="st0" d="M100,401.2c-2.2,0-4.2-0.5-5.8-1.4c-1.6-0.9-2.9-2.2-3.8-3.9v16.6h-8.9v-41h7.7v4.7c1.1-1.7,2.4-3,4-3.9
				s3.5-1.4,5.8-1.4c2,0,3.8,0.4,5.4,1.2s3.1,1.8,4.3,3.2c1.2,1.4,2.2,3,2.8,4.8c0.7,1.8,1,3.8,1,5.9c0,2.2-0.3,4.2-0.9,6.1
				s-1.5,3.5-2.6,4.8s-2.4,2.4-4,3.2C103.5,400.8,101.8,401.2,100,401.2z M97,393.6c1,0,1.8-0.2,2.6-0.6c0.8-0.4,1.5-1,2.1-1.7
				s1.1-1.5,1.4-2.5s0.5-1.9,0.5-3s-0.2-2.1-0.5-3s-0.8-1.7-1.4-2.4c-0.6-0.7-1.3-1.2-2.2-1.6s-1.8-0.6-2.8-0.6
				c-1.2,0-2.4,0.4-3.5,1.1s-2,1.7-2.6,2.9v6c0.6,1.5,1.5,2.7,2.7,3.7C94.3,393.1,95.6,393.6,97,393.6z"/>
			<path class="st0" d="M131.1,401.2c-2.4,0-4.6-0.4-6.6-1.2s-3.6-1.9-4.9-3.3s-2.4-3-3.1-4.8s-1.1-3.7-1.1-5.6c0-2.1,0.3-4.1,1.1-6
				c0.7-1.9,1.7-3.5,3.1-4.9c1.3-1.4,3-2.5,4.9-3.3s4.2-1.2,6.6-1.2c2.5,0,4.7,0.4,6.6,1.2c1.9,0.8,3.6,1.9,4.9,3.3
				c1.3,1.4,2.3,3,3,4.8s1,3.7,1,5.7c0,0.5,0,1-0.1,1.5s-0.1,0.9-0.2,1.3h-21.6c0.2,2,0.9,3.5,2.1,4.5c1.3,1,2.7,1.5,4.4,1.5
				c1.3,0,2.6-0.3,3.8-1c1.2-0.6,2-1.5,2.4-2.6l7.6,2.1c-1.1,2.3-2.9,4.2-5.3,5.6C137.3,400.4,134.4,401.2,131.1,401.2z
				 M137.3,383.2c-0.2-1.9-0.9-3.3-2-4.4s-2.6-1.6-4.3-1.6s-3.2,0.5-4.3,1.6c-1.1,1.1-1.8,2.5-2,4.4H137.3L137.3,383.2z"/>
			<path class="st0" d="M178.9,400.6H170v-16.4c0-1.9-0.4-3.3-1.1-4.2c-0.7-0.9-1.7-1.3-2.9-1.3c-0.6,0-1.3,0.1-1.9,0.4
				s-1.2,0.6-1.8,1.1s-1.1,1-1.6,1.6s-0.8,1.3-1.1,2.1v16.7h-8.9v-29.2h8v4.9c1.1-1.7,2.6-3.1,4.6-4c2-1,4.2-1.4,6.8-1.4
				c1.9,0,3.4,0.3,4.6,1s2,1.6,2.7,2.7c0.6,1.1,1.1,2.3,1.3,3.6s0.3,2.6,0.3,3.8L178.9,400.6L178.9,400.6z"/>
			<path class="st0" d="M209.1,372.7c-0.1-0.1-0.5-0.4-1.2-0.8s-1.5-0.8-2.5-1.3s-2.1-0.8-3.3-1.2c-1.2-0.3-2.4-0.5-3.6-0.5
				c-3.3,0-4.9,1.1-4.9,3.3c0,0.7,0.2,1.2,0.5,1.7c0.4,0.4,0.9,0.8,1.6,1.2c0.7,0.4,1.6,0.7,2.6,1s2.2,0.6,3.6,1
				c1.9,0.5,3.6,1.1,5.1,1.7s2.8,1.4,3.9,2.3s1.9,2,2.4,3.3c0.6,1.3,0.9,2.9,0.9,4.7c0,2.2-0.4,4.1-1.3,5.6
				c-0.8,1.5-1.9,2.8-3.3,3.7s-2.9,1.6-4.7,2.1s-3.6,0.6-5.5,0.6c-1.4,0-2.9-0.1-4.4-0.3s-3-0.5-4.4-1c-1.4-0.4-2.9-0.9-4.2-1.5
				c-1.4-0.6-2.6-1.3-3.8-2.1l4-8c0.1,0.2,0.6,0.5,1.4,1.1c0.8,0.5,1.8,1,3,1.6s2.6,1,4,1.4s3,0.6,4.5,0.6c3.2,0,4.8-1,4.8-3
				c0-0.7-0.2-1.4-0.7-1.8c-0.5-0.5-1.1-0.9-2-1.3s-1.9-0.8-3-1.1s-2.4-0.7-3.8-1.1c-1.8-0.6-3.4-1.2-4.7-1.8
				c-1.3-0.6-2.4-1.4-3.3-2.3s-1.5-1.8-1.9-3c-0.4-1.1-0.6-2.4-0.6-3.9c0-2.1,0.4-3.9,1.2-5.5s1.8-2.9,3.2-4
				c1.3-1.1,2.9-1.9,4.6-2.5s3.6-0.8,5.6-0.8c1.4,0,2.7,0.1,4.1,0.4s2.6,0.6,3.8,1s2.4,0.9,3.4,1.4s2,1,2.9,1.6L209.1,372.7z"/>
			<path class="st0" d="M237.5,399.1c-1.2,0.5-2.6,1-4.2,1.5s-3.2,0.7-4.8,0.7c-1.1,0-2.2-0.1-3.1-0.4s-1.8-0.7-2.6-1.3
				c-0.7-0.6-1.3-1.4-1.8-2.4c-0.4-1-0.6-2.2-0.6-3.6v-15.2h-3.7v-6.7h3.7v-9.3h8.9v9.3h5.9v6.7h-5.9v12.2c0,1,0.2,1.7,0.7,2.1
				s1.1,0.6,1.8,0.6s1.4-0.1,2.1-0.3c0.7-0.2,1.3-0.5,1.8-0.7L237.5,399.1z"/>
			<path class="st0" d="M259.5,379c-2.1,0-4.1,0.4-5.8,1.1s-3,1.7-3.8,3v17.5H241v-29.2h8.2v5.9c1-2,2.3-3.5,3.9-4.6
				c1.6-1.1,3.2-1.7,5-1.7c0.4,0,0.7,0,0.9,0c0.2,0,0.4,0,0.6,0.1L259.5,379L259.5,379z"/>
			<path class="st0" d="M275.7,401.2c-2.5,0-4.6-0.4-6.6-1.2c-2-0.8-3.6-1.9-5-3.3s-2.4-3-3.1-4.8s-1.1-3.7-1.1-5.6
				c0-2.1,0.4-4.1,1.1-6s1.7-3.5,3.1-4.9c1.3-1.4,3-2.5,4.9-3.3c2-0.8,4.2-1.2,6.6-1.2c2.5,0,4.7,0.4,6.6,1.2
				c1.9,0.8,3.6,1.9,4.9,3.3s2.3,3,3,4.8s1,3.7,1,5.7c0,0.5,0,1-0.1,1.5s-0.1,0.9-0.2,1.3h-21.6c0.1,2,0.9,3.5,2.1,4.5
				s2.7,1.5,4.4,1.5c1.3,0,2.5-0.3,3.8-1s2-1.5,2.4-2.6l7.6,2.1c-1.1,2.3-2.9,4.2-5.3,5.6C282,400.4,279.1,401.2,275.7,401.2z
				 M281.9,383.2c-0.2-1.9-0.9-3.3-2-4.4s-2.6-1.6-4.3-1.6c-1.7,0-3.2,0.5-4.3,1.6c-1.1,1.1-1.8,2.5-2,4.4H281.9L281.9,383.2z"/>
			<path class="st0" d="M309.3,401.2c-2.5,0-4.6-0.4-6.6-1.2c-2-0.8-3.6-1.9-5-3.3s-2.4-3-3.1-4.8s-1.1-3.7-1.1-5.6
				c0-2.1,0.4-4.1,1.1-6s1.7-3.5,3.1-4.9c1.3-1.4,3-2.5,4.9-3.3c2-0.8,4.2-1.2,6.6-1.2c2.5,0,4.7,0.4,6.6,1.2
				c1.9,0.8,3.6,1.9,4.9,3.3s2.3,3,3,4.8s1,3.7,1,5.7c0,0.5,0,1-0.1,1.5s-0.1,0.9-0.2,1.3h-21.6c0.1,2,0.9,3.5,2.1,4.5
				s2.7,1.5,4.4,1.5c1.3,0,2.5-0.3,3.8-1s2-1.5,2.4-2.6l7.6,2.1c-1.1,2.3-2.9,4.2-5.3,5.6C315.6,400.4,312.7,401.2,309.3,401.2z
				 M315.5,383.2c-0.2-1.9-0.9-3.3-2-4.4s-2.6-1.6-4.3-1.6c-1.7,0-3.2,0.5-4.3,1.6c-1.1,1.1-1.8,2.5-2,4.4H315.5L315.5,383.2z"/>
			<path class="st0" d="M347.6,399.1c-1.2,0.5-2.6,1-4.2,1.5s-3.2,0.7-4.8,0.7c-1.1,0-2.2-0.1-3.1-0.4s-1.8-0.7-2.6-1.3
				c-0.7-0.6-1.3-1.4-1.8-2.4c-0.4-1-0.6-2.2-0.6-3.6v-15.2h-3.7v-6.7h3.7v-9.3h8.9v9.3h6v6.7h-6v12.2c0,1,0.2,1.7,0.7,2.1
				s1.1,0.6,1.8,0.6c0.7,0,1.4-0.1,2.1-0.3c0.7-0.2,1.3-0.5,1.8-0.7L347.6,399.1z"/>
			<path class="st0" d="M382.9,400.6V377l-8.6,17.2h-4.9l-8.6-17.2v23.6h-9.1v-39.5h9.9l10.2,20.6l10.3-20.6h9.8v39.5H382.9z"/>
			<path class="st0" d="M406.9,401.2c-1.5,0-2.8-0.2-4-0.7s-2.3-1.1-3.2-2c-0.9-0.8-1.6-1.8-2.1-3s-0.8-2.4-0.8-3.7
				c0-1.5,0.3-2.8,0.9-4s1.5-2.2,2.6-3.1s2.4-1.5,4-2c1.5-0.5,3.2-0.7,5.1-0.7c1.2,0,2.4,0.1,3.6,0.3c1.1,0.2,2.1,0.5,3,0.9v-1.3
				c0-3.4-2-5.1-5.8-5.1c-1.6,0-3.1,0.3-4.6,0.8s-3,1.3-4.6,2.4l-2.6-5.6c1.9-1.3,3.9-2.2,6-2.8c2.1-0.6,4.3-1,6.6-1
				c4.4,0,7.8,1,10.2,3.1s3.6,5.1,3.6,9.1v7.5c0,0.9,0.1,1.5,0.4,1.9s0.8,0.6,1.5,0.6v7.5c-0.8,0.2-1.5,0.3-2.1,0.4
				s-1.2,0.1-1.7,0.1c-1.7,0-2.9-0.3-3.8-1s-1.4-1.6-1.6-2.8l-0.2-1.3c-1.3,1.7-2.9,3-4.6,3.8C410.8,400.7,408.9,401.2,406.9,401.2z
				 M409.5,394.8c1,0,1.9-0.2,2.8-0.5s1.7-0.8,2.3-1.3c0.9-0.7,1.3-1.4,1.3-2.1v-2.8c-0.8-0.3-1.6-0.5-2.5-0.7s-1.8-0.3-2.5-0.3
				c-1.6,0-3,0.4-4,1.1s-1.6,1.7-1.6,2.9c0,1.1,0.4,2,1.2,2.6C407.2,394.4,408.3,394.8,409.5,394.8z"/>
			<path class="st0" d="M449.7,401.2c-2.2,0-4.1-0.5-5.8-1.4c-1.6-0.9-2.9-2.2-3.8-3.9v16.6h-8.9v-41h7.7v4.7c1.1-1.7,2.4-3,4-3.9
				s3.5-1.4,5.8-1.4c2,0,3.8,0.4,5.4,1.2c1.6,0.8,3.1,1.8,4.3,3.2s2.1,3,2.8,4.8c0.7,1.8,1,3.8,1,5.9c0,2.2-0.3,4.2-1,6.1
				s-1.5,3.5-2.6,4.8s-2.5,2.4-4,3.2C453.2,400.8,451.5,401.2,449.7,401.2z M446.7,393.6c1,0,1.8-0.2,2.6-0.6c0.8-0.4,1.5-1,2.1-1.7
				s1-1.5,1.4-2.5c0.3-1,0.5-1.9,0.5-3s-0.2-2.1-0.5-3c-0.4-0.9-0.8-1.7-1.5-2.4c-0.6-0.7-1.4-1.2-2.2-1.6s-1.8-0.6-2.8-0.6
				c-1.2,0-2.4,0.4-3.5,1.1s-2,1.7-2.6,2.9v6c0.6,1.5,1.5,2.7,2.7,3.7S445.3,393.6,446.7,393.6z"/>
			<path class="st0" d="M172.5,442.1c0,1.7-0.4,3.2-1.1,4.5c-0.7,1.3-1.7,2.3-2.9,3.1c-1.2,0.8-2.6,1.5-4.3,1.9
				c-1.6,0.4-3.4,0.6-5.2,0.6h-19.2v-39.5h22c1.4,0,2.6,0.3,3.7,0.9c1.1,0.6,2.1,1.4,2.8,2.3s1.4,2,1.8,3.2c0.4,1.2,0.6,2.4,0.6,3.7
				c0,1.9-0.5,3.7-1.4,5.3s-2.4,2.9-4.3,3.8c2.3,0.7,4.1,1.9,5.4,3.6C171.9,437.3,172.5,439.5,172.5,442.1z M149,420.5v8.2h8.9
				c1,0,1.9-0.3,2.7-1s1.2-1.7,1.2-3.1c0-1.3-0.3-2.3-1-3s-1.5-1.1-2.5-1.1H149L149,420.5z M163.3,440.3c0-1.2-0.4-2.3-1.1-3.1
				c-0.7-0.9-1.6-1.3-2.7-1.3H149v8.6h10.1c1.2,0,2.2-0.4,2.9-1.2S163.3,441.6,163.3,440.3z"/>
			<path class="st0" d="M191.2,452.8c-2.4,0-4.6-0.4-6.6-1.2s-3.6-1.9-4.9-3.3c-1.4-1.4-2.4-3-3.1-4.8c-0.7-1.8-1.1-3.7-1.1-5.6
				c0-2.1,0.4-4.1,1.1-6c0.7-1.9,1.7-3.5,3.1-4.9c1.3-1.4,3-2.5,4.9-3.3s4.2-1.2,6.6-1.2c2.5,0,4.7,0.4,6.6,1.2
				c1.9,0.8,3.6,1.9,4.9,3.3c1.3,1.4,2.3,3,3,4.8s1,3.7,1,5.7c0,0.5,0,1-0.1,1.5s-0.1,0.9-0.2,1.3h-21.6c0.1,2,0.9,3.5,2.1,4.5
				c1.3,1,2.7,1.5,4.4,1.5c1.3,0,2.6-0.3,3.8-1c1.2-0.6,2-1.5,2.4-2.6l7.6,2.1c-1.1,2.3-2.9,4.2-5.3,5.6
				C197.4,452.1,194.5,452.8,191.2,452.8z M197.3,434.9c-0.2-1.9-0.9-3.3-2-4.4s-2.6-1.6-4.3-1.6s-3.2,0.5-4.3,1.6s-1.8,2.5-2,4.4
				H197.3L197.3,434.9z"/>
			<path class="st0" d="M210.7,411.6h8.9v30.2c0,2.2,0.9,3.3,2.8,3.3c0.4,0,0.9-0.1,1.5-0.2c0.5-0.1,1-0.3,1.5-0.6l1.2,6.7
				c-1.1,0.5-2.4,0.9-3.8,1.2c-1.4,0.3-2.8,0.5-4.1,0.5c-2.6,0-4.5-0.7-5.9-2s-2.1-3.3-2.1-5.8L210.7,411.6L210.7,411.6z"/>
			<path class="st0" d="M240.8,452.4c-1.9,0-3.7-0.4-5.3-1.2s-3-1.8-4.1-3.2c-1.1-1.3-2-2.9-2.6-4.7s-0.9-3.7-0.9-5.7
				c0-2.1,0.3-4.1,1-6c0.7-1.8,1.6-3.4,2.8-4.8s2.6-2.4,4.3-3.2s3.5-1.2,5.5-1.2c2.2,0,4.2,0.5,5.8,1.4s3,2.3,4,3.9v-4.8h7.7V450
				c0,2.2-0.4,4.2-1.3,6s-2,3.3-3.5,4.5s-3.3,2.2-5.3,2.9c-2.1,0.7-4.4,1-6.8,1c-3.1,0-5.8-0.5-8.1-1.5s-4.2-2.5-5.8-4.3l4.8-4.8
				c1.1,1.2,2.4,2.2,4,2.9s3.3,1.1,5.1,1.1c1.1,0,2.1-0.1,3.1-0.5c1-0.3,1.8-0.8,2.6-1.4c0.7-0.6,1.3-1.4,1.8-2.4
				c0.4-1,0.6-2.2,0.6-3.5v-2.8c-0.9,1.6-2.2,2.9-3.8,3.7C244.5,451.9,242.7,452.4,240.8,452.4z M243.8,445.3c1.4,0,2.6-0.4,3.7-1.1
				s1.9-1.7,2.5-2.9v-6.1c-0.6-1.6-1.5-2.8-2.7-3.7c-1.2-0.9-2.5-1.4-3.9-1.4c-1,0-1.8,0.2-2.6,0.6s-1.5,1-2.1,1.7s-1,1.6-1.3,2.5
				c-0.3,1-0.5,1.9-0.5,2.9c0,1.1,0.2,2.1,0.5,3c0.4,0.9,0.8,1.7,1.5,2.4c0.6,0.7,1.4,1.2,2.2,1.6
				C241.9,445.1,242.8,445.3,243.8,445.3z"/>
			<path class="st0" d="M265,419.7v-8.1h8.9v8.1H265z M265,452.2V423h8.9v29.2H265z"/>
			<path class="st0" d="M288.9,452.8c-3,0-5.3-0.9-6.8-2.8s-2.3-4.6-2.3-8.3V423h8.9v16.7c0,1.8,0.4,3.1,1.1,4.1s1.7,1.4,3,1.4
				c1.2,0,2.3-0.3,3.5-1s2.1-1.7,3-3.3v-18h8.9v19.2c0,0.9,0.1,1.5,0.4,1.9s0.8,0.6,1.5,0.6v7.5c-0.9,0.2-1.6,0.3-2.2,0.4
				s-1.1,0.1-1.6,0.1c-3.2,0-5-1.2-5.5-3.7l-0.2-1.8c-1.3,1.9-3,3.4-5,4.3C293.5,452.4,291.3,452.8,288.9,452.8z"/>
			<path class="st0" d="M361.1,452.2h-8.9v-16.4c0-1.9-0.4-3.3-1.1-4.2c-0.7-0.9-1.6-1.3-2.7-1.3c-0.6,0-1.2,0.1-1.8,0.4
				s-1.2,0.6-1.7,1.1s-1,1-1.4,1.6s-0.8,1.3-1,2.1v16.7h-8.9v-16.4c0-1.9-0.4-3.3-1.1-4.2c-0.7-0.9-1.6-1.3-2.7-1.3
				c-1.2,0-2.4,0.5-3.5,1.4s-2,2.2-2.5,3.8v16.7h-8.9V423h8v4.9c1.1-1.8,2.5-3.1,4.4-4.1c1.8-0.9,4-1.4,6.4-1.4
				c1.2,0,2.3,0.1,3.2,0.4c0.9,0.3,1.7,0.7,2.4,1.2c0.7,0.5,1.2,1.1,1.6,1.8c0.4,0.7,0.7,1.4,0.9,2.2c1.1-1.8,2.6-3.2,4.4-4.2
				s3.9-1.5,6.2-1.5c1.9,0,3.4,0.3,4.5,1s2,1.6,2.6,2.7s1,2.3,1.3,3.6s0.3,2.6,0.3,3.8L361.1,452.2L361.1,452.2z"/>
		</g>
	</g>
	<g>
		<g id="layer4">
			<path id="path3834-9" class="st1" d="M94.9,38.5c0,0,10,17.3,15.6,36.9c5.7,19.6,8.3,33.9,8.3,33.9s-7.3,17-11,32.9
				s-7.6,30.6-7.6,30.6s7.6,21.3,12.3,39.9s5,32.2,5,32.2s-5.3,13.6-10,32.2c-4.7,18.6-6.6,40.9-6.6,40.9s12.3-2.7,37.9,1.7
				c25.6,4.3,42.9,8,42.9,8s17-3.7,31.9-8.3s21.6-8.6,21.6-8.6s7.3,0.7,29.9,8.3s38.9,11.3,38.9,11.3s17.3-3.7,34.6-7.6
				s35.2-10.6,35.2-10.6s-1-6.6,5.7-32.6c6.6-25.9,11.6-37.2,11.6-37.2s-0.7-6-5-26.3c-4.3-20.3-13.3-39.6-13.3-39.6s2.3-14,9-31.6
				c6.6-17.6,13.6-35.6,13.6-35.6s-6.3-20.3-10-39.6c-3.7-19.3-11-34.2-11-34.2s-32.2,12-42.2,14s-27.9,7-27.9,7s-13-5.7-29.3-11.3
				s-39.6-7.3-39.6-7.3s-4.3,4.7-29.3,10.6s-36.6,7.6-36.6,7.6s-24.6-12-41.9-15.3C110.5,37.5,95.9,38.2,94.9,38.5z"/>
			<g>
				<defs>
					<path id="SVGID_1_" d="M94.9,38.5c0,0,10,17.3,15.6,36.9c5.7,19.6,8.3,33.9,8.3,33.9s-7.3,17-11,32.9s-7.6,30.6-7.6,30.6
						s7.6,21.3,12.3,39.9s5,32.2,5,32.2s-5.3,13.6-10,32.2c-4.7,18.6-6.6,40.9-6.6,40.9s12.3-2.7,37.9,1.7c25.6,4.3,42.9,8,42.9,8
						s17-3.7,31.9-8.3s21.6-8.6,21.6-8.6s7.3,0.7,29.9,8.3s38.9,11.3,38.9,11.3s17.3-3.7,34.6-7.6s35.2-10.6,35.2-10.6
						s-1-6.6,5.7-32.6c6.6-25.9,11.6-37.2,11.6-37.2s-0.7-6-5-26.3c-4.3-20.3-13.3-39.6-13.3-39.6s2.3-14,9-31.6
						c6.6-17.6,13.6-35.6,13.6-35.6s-6.3-20.3-10-39.6c-3.7-19.3-11-34.2-11-34.2s-32.2,12-42.2,14s-27.9,7-27.9,7
						s-13-5.7-29.3-11.3s-39.6-7.3-39.6-7.3s-4.3,4.7-29.3,10.6s-36.6,7.6-36.6,7.6s-24.6-12-41.9-15.3
						C110.5,37.5,95.9,38.2,94.9,38.5z"/>
				</defs>
				<clipPath id="SVGID_2_">
					<use xlink:href="#SVGID_1_"  style="overflow:visible;"/>
				</clipPath>
				<g id="g5438" transform="translate(0,-10)" class="st2">
					<path id="path5436" class="st3" d="M230.2,39.6l-5.7,9.3c-1,12-3,18.3-11.3,21.9c-8.3,3.7-16.3,4.7-14.6,10
						c1.7,5.3,17.3,12.3,19,17.3c1.7,5,11,2.3,14.6,9.3c3.7,7,2.7,20.3-5,22.9s-23.3,0.7-26.9,12.6c-3.7,12-6.3,14-12,17
						c-5.7,3-9.6,14-4.7,21.9s16.3-1.7,19.9-8.6c3.7-7,9.6-11.6,9.6-11.6h31.6l78.5-2.3l4.3-5c0,0,4.3,5.3,3.7,11.6
						c-0.7,6.3-5,19.6,0.3,22.9s25.9-2.7,31.9-9.3c6-6.6-6.3-37.6-14-39.2s-24.6-2.3-22.6-9.3c2-7,15.6,6,22.9,4.3
						c7.3-1.7,22.3-27.9,16-33.6c-6.3-5.7-32.2-7-34.2-10.6s27.9-10.6,29.6-14.6c1.7-4-3.3-9.6-8.3-11.3c-5-1.7-18.6,21.6-27.9,20.9
						c-9.3-0.7-26.6,7.6-22.9,15.3s-8,14.6-19.3,8.6s-32.9-17.3-28.9-31.9s28.6-24.9,28.6-24.9L230.2,39.6z M212.1,182.2
						c-2.1,0.2-5.9,6.2-6.6,9.4c-0.7,3.3-4.3,9-4.7,16.3c-0.3,7.3,6.3,9,11.6,8.6s3.7-9,2.7-19.9c-0.3,0-0.7-13.6-2.7-14.3
						C212.4,182.2,212.3,182.1,212.1,182.2L212.1,182.2z M335.5,250.9c-8.4,0.4-8.8,9.9-9.8,11.8c-1.7,3,3,18.3,2.7,23.9
						c-0.3,5.7-6.3,7-12.6,13s0.7,21.3,15,41.2l59.5,1.7l-1.3-46.5c0,0,6.3-5.7-27.6-32.2C348.5,253.7,340.5,250.6,335.5,250.9z
						 M136,272.8c-5.4-0.1-11,7.6-12.9,10.1c-2,2.7-8.3,6.6-22.6,12.6l-19.3,45.5l70.5,5.7c0,0,2.3-14.6-5.7-20.9
						s-22.9-7.6-24.3-17.6s12.3-13.3,18.3-19c6-5.7,2.7-15-3-16.3C136.7,272.9,136.4,272.8,136,272.8L136,272.8z"/>
				</g>
			</g>
			<path id="path5280" class="st4" d="M293.7,135.7c-6.3,0-12,1.3-15.3,4.2c-10.6,9.3-46.5,1-64.5,9.3c-18,8.3-17.6,50.5-19.6,59.2
				c-2,8.6-23.3,27.6-26.6,31.3c-3.3,3.7-17.6,9.6-25.9,11.3c-8.3,1.7-17,9.6-20.6,14.6c-2.7,3.7-9.8,8.6-13.5,10.9
				c-0.1,0.2-0.1,0.5-0.2,0.7c-0.2,0.7-0.3,1.4-0.5,2.2c6.6-2.1,14.9-10.9,22.1-18.1c8.3-8.3,26.6-10.3,36.9-15.3s19-26.3,35.2-31.6
				s28.3,15.6,32.2,24.6c4,9,2.3,17,5,22.6c2.7,5.7,14.6,15.6,15.3,18c0.7,2.3-6.6,8.6-8.3,11.3c-1.7,2.7-14,9.3-15.6,11.6
				c-1.3,1.8-2.6,9-3.1,12.3c0.5-0.2,1-0.4,1.5-0.6c0.6-3.4,2-9.4,3.9-11.3c2.7-2.7,15-6,16.6-11.3c1.7-5.3,9.3-8.6,9.3-8.6
				s3.7,5.3,21.3,18.6c11.7,8.9,17,20.7,19.2,27.6c0.9,0.2,2,0.5,2.7,0.7c-1.6-5.7-6.4-21.6-11.9-27.6c-6.6-7.3-24.6-14.3-30.3-29.3
				c-5.7-15-32.6-45.5-23.3-53.5c9.3-8,21.9-5.3,37.9,10s61.5,7.6,76.8,5c13.2-2.3,27.7,19.8,31.8,34.6c0.8-2.8,1.5-5.3,2.2-7.6
				c-2.3-2.6-4.9-6.1-7.1-11c-5-11.3-16-17.6-16-17.6s11.6-6.6,19.6-10.3c2.2-1,4-2.2,5.6-3.5c-0.2-1-0.3-1.7-0.6-2.8
				c0-0.2-0.1-0.4-0.1-0.6c-6.3,7.4-25.6,12.8-28.8,14.5c-3.7,2-24.3,4-47.5,6c-23.3,2-35.6-10-45.5-19.6c-10-9.6-17.3-47.9-4-50.5
				c13.3-2.7,26.6,18.3,39.9,22.6c13.3,4.3,28.6-20.9,26.3-35.9C324.7,142.3,307.7,135.8,293.7,135.7L293.7,135.7z M222.8,153.4
				c1.7,0,7.8,2.1,8.7,3.2c3,3.3,2.7,9.6,0,10.6c-2.7,1-17,10.6-14,19s2.3,23.9-4.7,23.9c-7,0-10.6,0-13.3-3.3s-2.7-16,0-26.3
				s4.7-19.9,10.6-24.3C214.3,153.3,219.1,153.4,222.8,153.4L222.8,153.4z M240.9,250.6c0.3,0,2.5,4.7,6.3,9.4c4,5,4.3,11,4.3,11
				s-5.7-6.3-8-10.6C241.2,256,240.8,250.7,240.9,250.6C240.8,250.6,240.8,250.6,240.9,250.6L240.9,250.6z"/>
			<path id="path5319" class="st5" d="M246.1,118.3c8.3,0.7,16.3-3,14.3-8.6c-2-5.7-16.6-9.6-17.6-4
				C241.8,111.4,245.5,119.7,246.1,118.3z"/>
			<path id="path5321" class="st5" d="M227.5,97.7c-11.3-7.3-11.3-9.6-9.3-10.6c2-1,13.6,6.6,17,10.6
				C238.5,101.7,232.2,100.4,227.5,97.7z"/>
			<g>
				<defs>
					<path id="SVGID_3_" d="M94.9,38.5c0,0,10,17.3,15.6,36.9c5.7,19.6,8.3,33.9,8.3,33.9s-7.3,17-11,32.9s-7.6,30.6-7.6,30.6
						s7.6,21.3,12.3,39.9s5,32.2,5,32.2s-5.3,13.6-10,32.2c-4.7,18.6-6.6,40.9-6.6,40.9s12.3-2.7,37.9,1.7c25.6,4.3,42.9,8,42.9,8
						s17-3.7,31.9-8.3s21.6-8.6,21.6-8.6s7.3,0.7,29.9,8.3s38.9,11.3,38.9,11.3s17.3-3.7,34.6-7.6s35.2-10.6,35.2-10.6
						s-1-6.6,5.7-32.6c6.6-25.9,11.6-37.2,11.6-37.2s-0.7-6-5-26.3c-4.3-20.3-13.3-39.6-13.3-39.6s2.3-14,9-31.6
						c6.6-17.6,13.6-35.6,13.6-35.6s-6.3-20.3-10-39.6c-3.7-19.3-11-34.2-11-34.2s-32.2,12-42.2,14s-27.9,7-27.9,7
						s-13-5.7-29.3-11.3s-39.6-7.3-39.6-7.3s-4.3,4.7-29.3,10.6s-36.6,7.6-36.6,7.6s-24.6-12-41.9-15.3
						C110.5,37.5,95.9,38.2,94.9,38.5z"/>
				</defs>
				<clipPath id="SVGID_4_">
					<use xlink:href="#SVGID_3_"  style="overflow:visible;"/>
				</clipPath>
				<g id="g5373" transform="translate(0,-10)" class="st6">
					<path id="path5323" class="st5" d="M103.8,233.4c43.9-3.3,50.9-4.7,48.2-13.6c-2.7-9-11.6-31.3-30.6-29.9
						c-19,1.3-30.3-9-30.3-9"/>
					<path id="path5311" class="st7" d="M106.2,268c24.3-13.3,38.2-11.3,46.5-15.3s17.6-7.6,20.9-12.6s7.6-15.3,7.6-23.9
						c0-8.6-4.7-47.9,4.3-57.9c9-10,22.9-34.6,34.6-30.9c11.6,3.7,16.3,13,29.3,12.6c13-0.3,28.9-5.3,32.2-16.3
						c3.3-11-20.9-21.3-21.3-30.6c-0.3-9.3,7.3-19,26.9-22.6s31.3-15.3,31.3-15.3"/>
					<path id="path5313" class="st5" d="M102.2,246.4c20.3-2,29.6,4.7,41.9,2.3c12.3-2.3,17.6-4,23.6-7.6c6-3.7,8-5,8.3-8.6
						c0.3-3.7,1.3-16.6-4-29.3s-16.6-41.9-11-51.5c5.7-9.6,7-28.6,20.9-32.6c14-4,27.9-8.3,36.9-1.7c9,6.6,17,19,26.6,19.3
						c9.6,0.3,15.6-2,19.3-6c3.7-4,6-13.6,2.3-18.3c-3.7-4.7-20.6-7.3-22.9-12.6s-14.3-22.6-0.3-35.6s48.2-11,48.2-11"/>
					<path id="path5315" class="st5" d="M111.2,243.7c18.3,1.3,28.6,5.7,44.6-0.7c16-6.3,18-7,18.3-11.6s-0.3-20.9-4-26.6
						c-3.7-5.7-17.3-18.3-20.9-32.2c-3.7-14,0.3-54.5,11.3-64.2c11-9.6,42.6-9.6,49.9-14c7.3-4.3,7-22.3,17.3-32.6
						s35.9-16.3,35.9-16.3"/>
					<path id="path5317" class="st5" d="M335.6,56.9c15.6,6.6,51.9,13,62.8,53.5"/>
					<path id="path5325" class="st5" d="M95.9,316.8c25.3-16.6,47.9-1.7,65.2-5.3c17.3-3.7,50.9-49.5,61.2-49.2s7.3-15.6,11.3-17.6
						c4-2,7.3,8,15.6,10.6c8.3,2.7,32.6-3.7,31.3-7.6c-1.3-4-9.3-10.3-7.3-11.3c2-1,11.3,6.6,17,4.7c5.7-2,58.2-1.3,64.5-18
						s28.6-18,28.6-18"/>
					<path id="path5327" class="st5" d="M186,342.8c18-15.3,30.9-33.2,37.9-35.9c7-2.7,17-5,20.9-10.6c4-5.7,3.3-14.3,7-16
						c3.7-1.7,5,7.6,11.6,8s48.9-6.6,56.9-15.6c8-9,42.9-16.6,43.2-19.3c0.3-2.7-1.3-6.3,0.3-7.3c1.7-1,32.9-8,32.9-8"/>
					<path id="path5329" class="st5" d="M307.3,346.1c12-18.3,27.3-54.5,39.2-55.9c12-1.3,13.6-3.3,16.6-5.7s22.6,3,22.6,3"/>
				</g>
			</g>
			<g>
				<defs>
					<path id="SVGID_5_" d="M94.9,38.5c0,0,10,17.3,15.6,36.9c5.7,19.6,8.3,33.9,8.3,33.9s-7.3,17-11,32.9s-7.6,30.6-7.6,30.6
						s7.6,21.3,12.3,39.9s5,32.2,5,32.2s-5.3,13.6-10,32.2c-4.7,18.6-6.6,40.9-6.6,40.9s12.3-2.7,37.9,1.7c25.6,4.3,42.9,8,42.9,8
						s17-3.7,31.9-8.3s21.6-8.6,21.6-8.6s7.3,0.7,29.9,8.3s38.9,11.3,38.9,11.3s17.3-3.7,34.6-7.6s35.2-10.6,35.2-10.6
						s-1-6.6,5.7-32.6c6.6-25.9,11.6-37.2,11.6-37.2s-0.7-6-5-26.3c-4.3-20.3-13.3-39.6-13.3-39.6s2.3-14,9-31.6
						c6.6-17.6,13.6-35.6,13.6-35.6s-6.3-20.3-10-39.6c-3.7-19.3-11-34.2-11-34.2s-32.2,12-42.2,14s-27.9,7-27.9,7
						s-13-5.7-29.3-11.3s-39.6-7.3-39.6-7.3s-4.3,4.7-29.3,10.6s-36.6,7.6-36.6,7.6s-24.6-12-41.9-15.3
						C110.5,37.5,95.9,38.2,94.9,38.5z"/>
				</defs>
				<clipPath id="SVGID_6_">
					<use xlink:href="#SVGID_5_"  style="overflow:visible;"/>
				</clipPath>
				<g id="g5400" transform="translate(0,-10)" class="st8">
					<path id="path5387" class="st9" d="M159.7,58.8l-11.3,37.6l23.9,8.3l10.3,48.2l-27.9,29.6l12,14l-16,15.3l0.7,6l26.9,32.6
						l18.6-9l27.3,24.6l-14,37.6l13.6,11.3l-3.7,17.3"/>
					<path id="path5389" class="st9" d="M223.5,314.5l16.6-36.9l14.6-9.3l36.6,20.9l27.3-5l-0.3-20.9l-13.6-8l17-34.9l7.6-5
						l51.5-13.3"/>
				</g>
			</g>
		</g>
		<g id="layer1" transform="translate(0,192)">
			
				<linearGradient id="path3834-49_1_" gradientUnits="userSpaceOnUse" x1="371.6624" y1="123.1021" x2="104.1265" y2="502.5422" gradientTransform="matrix(1 0 0 -1 0 298)">
				<stop  offset="0" style="stop-color:#000000"/>
				<stop  offset="1" style="stop-color:#000000;stop-opacity:0"/>
			</linearGradient>
			<path id="path3834-49" class="st10" d="M94.9-153.5c0,0,10,17.3,15.6,36.9c5.7,19.6,8.3,33.9,8.3,33.9s-7.3,17-11,32.9
				s-7.6,30.6-7.6,30.6s7.6,21.3,12.3,39.9s5,32.2,5,32.2s-5.3,13.6-10,32.2s-6.6,40.9-6.6,40.9s12.3-2.7,37.9,1.7
				c25.6,4.3,42.9,8,42.9,8s17-3.7,31.9-8.3c15-4.7,21.6-8.6,21.6-8.6s7.3,0.7,29.9,8.3s38.9,11.3,38.9,11.3s17.3-3.7,34.6-7.6
				c17.3-4,35.2-10.6,35.2-10.6s-1-6.6,5.7-32.6c6.6-25.9,11.6-37.2,11.6-37.2s-0.7-6-5-26.3c-4.3-20.3-13.3-39.6-13.3-39.6
				s2.3-14,9-31.6c6.6-17.6,13.6-35.6,13.6-35.6s-6.3-20.3-10-39.6c-3.7-19.3-11-34.2-11-34.2s-32.2,12-42.2,14s-27.9,7-27.9,7
				s-13-5.7-29.3-11.3c-16.3-5.7-39.6-7.3-39.6-7.3s-4.3,4.7-29.3,10.6c-24.9,6-36.6,7.6-36.6,7.6s-24.6-12-41.9-15.3
				C110.5-154.5,95.9-153.8,94.9-153.5z"/>
		</g>
		<g id="layer3">
			<g id="g4808" transform="translate(0,182)" class="st11">
				
					<linearGradient id="path3834-4-9_1_" gradientUnits="userSpaceOnUse" x1="368.9773" y1="435.8467" x2="305.4752" y2="372.49" gradientTransform="matrix(1 0 0 -1 0 318)">
					<stop  offset="0" style="stop-color:#FFFFFF"/>
					<stop  offset="1" style="stop-color:#FFFFFF;stop-opacity:0"/>
				</linearGradient>
				<path id="path3834-4-9" class="st12" d="M374.5-146.4c0,0-32.2,12-42.2,14s-27.9,7-27.9,7c6.5-1.8,15.2,60.4,19,69.5l-0.1,0.4
					c15.7-5.4,68.1-6.3,72.2-17c0,0-6.3-20.3-10-39.6C381.8-131.5,374.5-146.4,374.5-146.4z"/>
				
					<linearGradient id="path3834-7-2-4-9_1_" gradientUnits="userSpaceOnUse" x1="141.9792" y1="389.8337" x2="147.839" y2="304.6794" gradientTransform="matrix(1 0 0 -1 0 318)">
					<stop  offset="0" style="stop-color:#FFFFFF"/>
					<stop  offset="1" style="stop-color:#FFFFFF;stop-opacity:0"/>
				</linearGradient>
				<path id="path3834-7-2-4-9" class="st13" d="M118.8-72.6c0,0-7.3,17-11,32.9s-7.6,30.6-7.6,30.6l67.3,21.7l21-78.3L118.8-72.6z"
					/>
				
					<linearGradient id="path3834-7-26-9-7_1_" gradientUnits="userSpaceOnUse" x1="139.6774" y1="207.1205" x2="187.8443" y2="238.7054" gradientTransform="matrix(1 0 0 -1 0 318)">
					<stop  offset="0" style="stop-color:#FFFFFF"/>
					<stop  offset="1" style="stop-color:#FFFFFF;stop-opacity:0"/>
				</linearGradient>
				<path id="path3834-7-26-9-7" class="st14" d="M117.5,63c0,0-5.3,13.6-10,32.2s-6.6,40.9-6.6,40.9s0.2-0.1,0.6-0.1
					c2.7-0.5,14.9-2,37.3,1.8c25.6,4.3,42.9,8,42.9,8l2-69.8l-1,0.2L117.5,63z"/>
				
					<linearGradient id="path3834-4-9-6_1_" gradientUnits="userSpaceOnUse" x1="220.4279" y1="437.5419" x2="198.2354" y2="383.1412" gradientTransform="matrix(1 0 0 -1 0 318)">
					<stop  offset="0" style="stop-color:#FFFFFF"/>
					<stop  offset="1" style="stop-color:#FFFFFF;stop-opacity:0"/>
				</linearGradient>
				<path id="path3834-4-9-6" class="st15" d="M235.5-144.1c0,0-4.3,4.7-29.3,10.6c-24.9,6-36.6,7.6-36.6,7.6
					c6.9,19.6,16,38.9,19,59.5l-0.1,0.4l63.9-5.2l1.5,0.3C249.4-88.5,243.5-143.4,235.5-144.1z"/>
				
					<linearGradient id="path3834-7-26-0-0-9_1_" gradientUnits="userSpaceOnUse" x1="244.876" y1="321.6555" x2="172.7297" y2="237.4155" gradientTransform="matrix(1 0 0 -1 0 318)">
					<stop  offset="0" style="stop-color:#FFFFFF"/>
					<stop  offset="1" style="stop-color:#FFFFFF;stop-opacity:0"/>
				</linearGradient>
				<path id="path3834-7-26-0-0-9" class="st16" d="M239.3-8.3L168,12.6l-0.5-0.1l-0.2,0.6L183.6,75l0,1l65.8-11.8l0.7,0.2l0-0.1
					l-11-72.1L239.3-8.3L239.3-8.3z"/>
				
					<linearGradient id="path3834-7-2-4-3_1_" gradientUnits="userSpaceOnUse" x1="315.9815" y1="394.049" x2="253.8093" y2="308.4374" gradientTransform="matrix(1 0 0 -1 0 318)">
					<stop  offset="0" style="stop-color:#FFFFFF"/>
					<stop  offset="1" style="stop-color:#FFFFFF;stop-opacity:0"/>
				</linearGradient>
				<path id="path3834-7-2-4-3" class="st17" d="M253.9-70.8c0.3,1.2,0.6,2.3,0.9,3.2L239.3-8.3l0.1,0l68.9,23.1l14.9-70.4
					c-0.5,0.2-0.9,0.3-1.3,0.5L253.9-70.8L253.9-70.8L253.9-70.8z"/>
				
					<linearGradient id="path3834-7-26-9-85_1_" gradientUnits="userSpaceOnUse" x1="307.9281" y1="255.1225" x2="254.0262" y2="179.4851" gradientTransform="matrix(1 0 0 -1 0 318)">
					<stop  offset="0" style="stop-color:#FFFFFF"/>
					<stop  offset="1" style="stop-color:#FFFFFF;stop-opacity:0"/>
				</linearGradient>
				<path id="path3834-7-26-9-85" class="st18" d="M249.8,64.3l-14.7,64.5c0,0,7.3,0.7,29.9,8.3c2.8,1,5.5,1.9,8.1,2.7
					c2.6,0.8,5.1,1.6,7.5,2.3c14.1,4.3,23.3,6.3,23.3,6.3l16.9-60.4c-0.7,0.2-1.4,0.5-2,0.7L249.8,64.3z"/>
				
					<linearGradient id="path3834-7-26-0-0-3_1_" gradientUnits="userSpaceOnUse" x1="368.7487" y1="322.6155" x2="326.5248" y2="229.0663" gradientTransform="matrix(1 0 0 -1 0 318)">
					<stop  offset="0" style="stop-color:#FFFFFF"/>
					<stop  offset="1" style="stop-color:#FFFFFF;stop-opacity:0"/>
				</linearGradient>
				<path id="path3834-7-26-0-0-3" class="st19" d="M372.8-5.5C352,2.9,330.7,9.3,308.9,15l-0.6-0.2l12.6,73.1l0,0.1
					c23.7-8.5,47.1-17.8,70.2-27.7c0,0-0.7-6-5-26.3C381.8,13.8,372.8-5.5,372.8-5.5z"/>
			</g>
			<g id="g4818" transform="translate(0,182)" class="st20">
				
					<linearGradient id="path3834-4-9-1_1_" gradientUnits="userSpaceOnUse" x1="210.6846" y1="350.7569" x2="97.3117" y2="464.1922" gradientTransform="matrix(1 0 0 -1 0 318)">
					<stop  offset="0" style="stop-color:#000000"/>
					<stop  offset="1" style="stop-color:#000000;stop-opacity:0"/>
				</linearGradient>
				<path id="path3834-4-9-1" class="st21" d="M101.1-143.7c-1.5,0-2.6,0-3.6,0.1c-0.6,0-1.1,0.1-1.5,0.1c0,0-0.1,0-0.1,0
					c-0.5,0-0.9,0.1-1,0.1c0,0,10,17.3,15.6,36.9c5.7,19.6,8.3,33.9,8.3,33.9l68.4,6.8l1.2-0.1l0.1-0.4c-3-20.6-12.1-40-19-59.5
					c0,0-24.6-12-41.9-15.3c-1.4-0.3-2.7-0.5-4-0.7c-0.8-0.1-1.6-0.3-2.3-0.4c-0.3,0-0.6-0.1-0.9-0.1c-1.7-0.2-3.4-0.5-5.1-0.6
					c-1-0.1-1.9-0.2-2.8-0.2c-0.9-0.1-1.8-0.1-2.7-0.2c-1.3-0.1-2.5-0.2-3.7-0.2C104.4-143.7,102.7-143.7,101.1-143.7L101.1-143.7
					L101.1-143.7z"/>
				
					<linearGradient id="path3834-7-26-0-0-7_1_" gradientUnits="userSpaceOnUse" x1="157.7313" y1="373.2885" x2="137.783" y2="261.578" gradientTransform="matrix(1 0 0 -1 0 318)">
					<stop  offset="0" style="stop-color:#000000"/>
					<stop  offset="1" style="stop-color:#000000;stop-opacity:0"/>
				</linearGradient>
				<path id="path3834-7-26-0-0-7" class="st22" d="M100.2-9.1c0,0,7.6,21.3,12.3,39.9s5,32.2,5,32.2l65.1,13.1l1-0.2l0-1
					l-16.3-61.8l0.2-0.6L100.2-9.1z"/>
				
					<linearGradient id="path3834-7-2-4-6_1_" gradientUnits="userSpaceOnUse" x1="173.7349" y1="434.0785" x2="223.7719" y2="316.3835" gradientTransform="matrix(1 0 0 -1 0 318)">
					<stop  offset="0" style="stop-color:#000000"/>
					<stop  offset="1" style="stop-color:#000000;stop-opacity:0"/>
				</linearGradient>
				<path id="path3834-7-2-4-6" class="st23" d="M252.4-71.1l-63.8,5.3h-0.1l-21,78.3l0.5,0.1l71.3-20.9l15.5-59.4
					c-0.3-0.8-0.6-1.9-0.9-3.2L252.4-71.1L252.4-71.1z"/>
				
					<linearGradient id="path3834-7-26-9-8_1_" gradientUnits="userSpaceOnUse" x1="144.0016" y1="272.5912" x2="236.0547" y2="196.1228" gradientTransform="matrix(1 0 0 -1 0 318)">
					<stop  offset="0" style="stop-color:#000000"/>
					<stop  offset="1" style="stop-color:#000000;stop-opacity:0"/>
				</linearGradient>
				<path id="path3834-7-26-9-8" class="st24" d="M249.4,64.2L183.6,76l-2,69.8c0,0,17-3.7,31.9-8.3s21.6-8.6,21.6-8.6l14.9-64.4
					L249.4,64.2z"/>
				
					<linearGradient id="path3834-4-9-2_1_" gradientUnits="userSpaceOnUse" x1="128.8861" y1="434.6474" x2="322.7171" y2="412.7043" gradientTransform="matrix(1 0 0 -1 0 318)">
					<stop  offset="0" style="stop-color:#000000"/>
					<stop  offset="1" style="stop-color:#000000;stop-opacity:0"/>
				</linearGradient>
				<path id="path3834-4-9-2" class="st25" d="M235.5-144.1c8,0.7,13.9,55.6,18.4,73.3l68,15.7c0.4-0.2,0.9-0.3,1.3-0.5l0.1-0.4
					c-3.7-9.1-12.4-71.3-19-69.5c0,0-0.8-0.3-2.3-1c-4.4-1.9-14.8-6.1-27-10.3C258.8-142.5,235.5-144.1,235.5-144.1z"/>
				
					<linearGradient id="path3834-7-26-0-0-0_1_" gradientUnits="userSpaceOnUse" x1="142.3121" y1="389.9742" x2="304.5582" y2="257.6505" gradientTransform="matrix(1 0 0 -1 0 318)">
					<stop  offset="0" style="stop-color:#000000"/>
					<stop  offset="1" style="stop-color:#000000;stop-opacity:0"/>
				</linearGradient>
				<path id="path3834-7-26-0-0-0" class="st26" d="M239.4-8.3l-0.1,0l-0.1,0.5l11,70.8l-0.3,1.3l69,24.5c0.7-0.2,1.4-0.5,2-0.7
					l0-0.1l-12.6-73.1L239.4-8.3L239.4-8.3z"/>
				
					<linearGradient id="path3834-7-26-9-9_1_" gradientUnits="userSpaceOnUse" x1="304.1962" y1="268.5645" x2="373.6828" y2="180.4595" gradientTransform="matrix(1 0 0 -1 0 318)">
					<stop  offset="0" style="stop-color:#000000"/>
					<stop  offset="1" style="stop-color:#000000;stop-opacity:0"/>
				</linearGradient>
				<path id="path3834-7-26-9-9" class="st27" d="M391.1,60.3c-23.1,9.9-46.5,19.3-70.2,27.7L304,148.5c0,0,17.3-3.7,34.6-7.6
					c17.3-4,35.2-10.6,35.2-10.6s-1-6.6,5.7-32.6C386.1,71.7,391.1,60.3,391.1,60.3z"/>
				
					<linearGradient id="path3834-7-2-4-5_1_" gradientUnits="userSpaceOnUse" x1="261.8789" y1="436.6662" x2="384.561" y2="314.3166" gradientTransform="matrix(1 0 0 -1 0 318)">
					<stop  offset="0" style="stop-color:#000000"/>
					<stop  offset="1" style="stop-color:#000000;stop-opacity:0"/>
				</linearGradient>
				<path id="path3834-7-2-4-5" class="st28" d="M395.4-72.6c-4.1,10.7-56.5,11.6-72.2,17l-14.9,70.4l0.6,0.2
					C330.7,9.3,352,2.9,372.8-5.5c0,0,2.3-14,9-31.6C388.4-54.7,395.4-72.6,395.4-72.6z"/>
			</g>
		</g>
		<g>
			<linearGradient id="SVGID_7_" gradientUnits="userSpaceOnUse" x1="119.4409" y1="324.7389" x2="139.7233" y2="345.0213">
				<stop  offset="0" style="stop-color:#F9E295"/>
				<stop  offset="0.125" style="stop-color:#F7DD84"/>
				<stop  offset="0.2058" style="stop-color:#FFFFFF"/>
				<stop  offset="0.3011" style="stop-color:#F4CE51"/>
				<stop  offset="0.3412" style="stop-color:#F9E7AA"/>
				<stop  offset="1" style="stop-color:#EFBB0E"/>
			</linearGradient>
			<polygon class="st29" points="136.6,348.1 116.4,327.8 122.5,321.7 142.8,341.9 			"/>
			<linearGradient id="SVGID_8_" gradientUnits="userSpaceOnUse" x1="163.4179" y1="275.6913" x2="188.7709" y2="301.0443">
				<stop  offset="0" style="stop-color:#2D3335"/>
				<stop  offset="0.5" style="stop-color:#4C464A"/>
				<stop  offset="1" style="stop-color:#384042"/>
			</linearGradient>
			<polygon class="st30" points="231.3,258.5 206,233.1 120.9,318.2 146.2,343.6 			"/>
			<linearGradient id="SVGID_9_" gradientUnits="userSpaceOnUse" x1="211.0168" y1="232.8008" x2="231.6613" y2="253.4454">
				<stop  offset="0" style="stop-color:#F9E295"/>
				<stop  offset="0.125" style="stop-color:#F7DD84"/>
				<stop  offset="0.2058" style="stop-color:#FFFFFF"/>
				<stop  offset="0.3011" style="stop-color:#F4CE51"/>
				<stop  offset="0.3412" style="stop-color:#F9E7AA"/>
				<stop  offset="1" style="stop-color:#EFBB0E"/>
			</linearGradient>
			<polygon class="st31" points="233.8,251.3 213.2,230.6 208.8,235 229.5,255.6 			"/>
			<linearGradient id="SVGID_10_" gradientUnits="userSpaceOnUse" x1="226.9244" y1="225.2234" x2="239.2387" y2="237.5377">
				<stop  offset="0" style="stop-color:#2D3335"/>
				<stop  offset="0.5" style="stop-color:#4C464A"/>
				<stop  offset="1" style="stop-color:#384042"/>
			</linearGradient>
			<polygon class="st32" points="248.3,228.5 236,216.2 217.9,234.3 230.2,246.6 			"/>
			<path class="st33" d="M377.7,84c-36.6-36.6-96-36.6-132.6,0s-36.6,96,0,132.6s96,36.6,132.6,0S414.3,120.6,377.7,84z
				 M374.9,213.8c-35.1,35.1-91.9,35.1-127,0c-35.1-35.1-35.1-91.9,0-127c35.1-35.1,91.9-35.1,127,0S410,178.7,374.9,213.8z"/>
			<g>
				<defs>
					<circle id="SVGID_11_" cx="311.4" cy="150.3" r="87.8"/>
				</defs>
				<clipPath id="SVGID_12_">
					<use xlink:href="#SVGID_11_"  style="overflow:visible;"/>
				</clipPath>
				<g class="st34">
					<g>
						<rect x="159.9" y="-1.2" class="st35" width="101" height="302.9"/>
					</g>
					<g>
						<rect x="260.9" y="-1.2" class="st36" width="101" height="302.9"/>
					</g>
					<g>
						<rect x="361.9" y="-1.2" class="st37" width="101" height="302.9"/>
					</g>
				</g>
			</g>
			<linearGradient id="SVGID_13_" gradientUnits="userSpaceOnUse" x1="250.6732" y1="207.7472" x2="241.3899" y2="225.7332">
				<stop  offset="0" style="stop-color:#2D3335"/>
				<stop  offset="0.5" style="stop-color:#4C464A"/>
				<stop  offset="1" style="stop-color:#384042"/>
			</linearGradient>
			<path class="st38" d="M244.3,217.4c-6.4-6.4-11.7-13.6-15.9-21.2l-3.6,2.3c4.3,7.9,9.8,15.2,16.5,21.9
				c7.3,7.3,15.5,13.2,24.2,17.7l2.2-3.7C259.2,230.1,251.3,224.4,244.3,217.4z"/>
		</g>
		<g>
			<g>
				<g id="layer5">
					
						<linearGradient id="path6587_1_" gradientUnits="userSpaceOnUse" x1="266.2553" y1="435.5149" x2="337.1625" y2="292.7106" gradientTransform="matrix(1 0 0 -1 0 490)">
						<stop  offset="0" style="stop-color:#FFFFFF"/>
						<stop  offset="1" style="stop-color:#FFFFFF;stop-opacity:0"/>
					</linearGradient>
					<path id="path6587" class="st39" d="M257.3,84.8c54.1-42.8,103.9-16.9,103.4,7.1c-0.5,24-75.2,93.6-101.6,87.9
						C232.9,174.2,225.4,108.8,257.3,84.8z"/>
				</g>
			</g>
		</g>
	</g>
</g>
</svg>
