<?xml version="1.0" encoding="utf-8"?>
<!-- Generator: Adobe Illustrator 23.0.1, SVG Export Plug-In . SVG Version: 6.00 Build 0)  -->
<svg version="1.1" id="Layer_1" xmlns="http://www.w3.org/2000/svg" xmlns:xlink="http://www.w3.org/1999/xlink" x="0px" y="0px"
	 viewBox="0 0 500 500" style="enable-background:new 0 0 500 500;" xml:space="preserve">
<style type="text/css">
	.st0{fill:#CEEEAB;}
	.st1{clip-path:url(#SVGID_2_);}
	.st2{fill:#A6DD8B;}
	.st3{fill:#AAC3E7;}
	
		.st4{opacity:0.387;fill:none;stroke:#6D7F42;stroke-width:3.7062;stroke-linecap:round;stroke-linejoin:round;enable-background:new    ;}
	.st5{clip-path:url(#SVGID_4_);}
	.st6{opacity:0.387;fill:none;stroke:#6D7F42;stroke-width:3.7062;enable-background:new    ;}
	.st7{clip-path:url(#SVGID_6_);}
	.st8{fill:none;stroke:#D38484;stroke-width:7.4123;stroke-linecap:round;}
	.st9{opacity:3.910000e-02;fill:url(#path3834-49_1_);enable-background:new    ;}
	.st10{opacity:0.2696;}
	.st11{fill:url(#path3834-4-9_1_);}
	.st12{fill:url(#path3834-7-2-4-9_1_);}
	.st13{fill:url(#path3834-7-26-9-7_1_);}
	.st14{fill:url(#path3834-4-9-6_1_);}
	.st15{fill:url(#path3834-7-26-0-0-9_1_);}
	.st16{fill:url(#path3834-7-2-4-3_1_);}
	.st17{fill:url(#path3834-7-26-9-85_1_);}
	.st18{fill:url(#path3834-7-26-0-0-3_1_);}
	.st19{opacity:4.350000e-02;}
	.st20{fill:url(#path3834-4-9-1_1_);}
	.st21{fill:url(#path3834-7-26-0-0-7_1_);}
	.st22{fill:url(#path3834-7-2-4-6_1_);}
	.st23{fill:url(#path3834-7-26-9-8_1_);}
	.st24{fill:url(#path3834-4-9-2_1_);}
	.st25{fill:url(#path3834-7-26-0-0-0_1_);}
	.st26{fill:url(#path3834-7-26-9-9_1_);}
	.st27{fill:url(#path3834-7-2-4-5_1_);}
	.st28{fill:url(#SVGID_7_);}
	.st29{fill:url(#SVGID_8_);}
	.st30{fill:url(#SVGID_9_);}
	.st31{fill:url(#SVGID_10_);}
	.st32{fill:#2D3335;}
	.st33{clip-path:url(#SVGID_12_);}
	.st34{fill:#0F0F0F;}
	.st35{fill:#FFEC00;}
	.st36{fill:#D30000;}
	.st37{fill:url(#SVGID_13_);}
	.st38{opacity:0.6043;fill:url(#path6587_1_);enable-background:new    ;}
	.st39{fill:#222833;}
</style>
<g>
	<g>
		<g id="layer4">
			<path id="path3834-9" class="st0" d="M135.2,54.2c0,0,7.4,12.8,11.6,27.3s6.1,25.1,6.1,25.1s-5.4,12.5-8.1,24.4
				c-2.7,11.8-5.7,22.6-5.7,22.6s5.7,15.7,9.1,29.5c3.4,13.8,3.7,23.9,3.7,23.9s-3.9,10.1-7.4,23.9c-3.4,13.8-4.9,30.3-4.9,30.3
				s9.1-2,28,1.2s31.7,5.9,31.7,5.9s12.5-2.7,23.6-6.1s16-6.4,16-6.4s5.4,0.5,22.1,6.1s28.8,8.4,28.8,8.4s12.8-2.7,25.6-5.7
				s26.1-7.9,26.1-7.9s-0.7-4.9,4.2-24.1s8.6-27.6,8.6-27.6s-0.5-4.4-3.7-19.4c-3.2-15-9.8-29.3-9.8-29.3s1.7-10.3,6.6-23.4
				s10.1-26.3,10.1-26.3s-4.7-15-7.4-29.3S342.1,52,342.1,52s-23.9,8.8-31.2,10.3s-20.7,5.2-20.7,5.2s-9.6-4.2-21.6-8.4
				c-12-4.2-29.3-5.4-29.3-5.4s-3.2,3.4-21.6,7.9s-27.1,5.7-27.1,5.7s-18.2-8.8-31-11.3C146.8,53.4,136,53.9,135.2,54.2z"/>
			<g>
				<g>
					<defs>
						<path id="SVGID_1_" d="M135.2,44.2c0,0,7.4,12.8,11.6,27.3s6.1,25.1,6.1,25.1s-5.4,12.5-8.1,24.4c-2.7,11.8-5.7,22.6-5.7,22.6
							s5.7,15.7,9.1,29.5c3.4,13.8,3.7,23.9,3.7,23.9s-3.9,10.1-7.4,23.9c-3.4,13.8-4.9,30.3-4.9,30.3s9.1-2,28,1.2
							s31.7,5.9,31.7,5.9s12.5-2.7,23.6-6.1s16-6.4,16-6.4s5.4,0.5,22.1,6.1s28.8,8.4,28.8,8.4s12.8-2.7,25.6-5.7s26.1-7.9,26.1-7.9
							s-0.7-4.9,4.2-24.1s8.6-27.6,8.6-27.6s-0.5-4.4-3.7-19.4c-3.2-15-9.8-29.3-9.8-29.3s1.7-10.3,6.6-23.4s10.1-26.3,10.1-26.3
							s-4.7-15-7.4-29.3S342.1,42,342.1,42s-23.9,8.8-31.2,10.3s-20.7,5.2-20.7,5.2s-9.6-4.2-21.6-8.4c-12-4.2-29.3-5.4-29.3-5.4
							s-3.2,3.4-21.6,7.9s-27.1,5.7-27.1,5.7s-18.2-8.8-31-11.3C146.8,43.4,136,43.9,135.2,44.2z"/>
					</defs>
					<clipPath id="SVGID_2_">
						<use xlink:href="#SVGID_1_"  style="overflow:visible;"/>
					</clipPath>
					<g id="g5438" transform="translate(0,-10)" class="st1">
						<path id="path5436" class="st2" d="M235.3,57.5l-4.2,6.9c-0.7,8.8-2.2,13.5-8.4,16.2c-6.1,2.7-12.1,3.4-10.8,7.4
							c1.2,3.9,12.8,9.1,14,12.8c1.2,3.7,8.1,1.7,10.8,6.9c2.7,5.2,2,15-3.7,17s-17.2,0.5-19.9,9.4c-2.7,8.9-4.7,10.3-8.9,12.5
							c-4.2,2.2-7.1,10.3-3.4,16.2s12.1-1.2,14.8-6.4c2.7-5.2,7.1-8.6,7.1-8.6h23.4l58-1.7l3.2-3.7c0,0,3.2,3.9,2.7,8.6
							c-0.5,4.7-3.7,14.5,0.3,17s19.2-2,23.6-6.9c4.4-4.9-4.7-27.8-10.3-29c-5.7-1.2-18.2-1.7-16.7-6.9c1.5-5.2,11.6,4.4,17,3.2
							s16.5-20.7,11.8-24.8c-4.7-4.2-23.9-5.2-25.3-7.9s20.7-7.9,21.9-10.8s-2.5-7.1-6.1-8.4s-13.8,16-20.7,15.5s-19.7,5.7-17,11.3
							c2.7,5.7-5.9,10.8-14.3,6.4c-8.4-4.4-24.4-12.8-21.4-23.6c2.9-10.8,21.1-18.5,21.1-18.5L235.3,57.5z M222,163
							c-1.6,0.1-4.4,4.6-4.9,6.9c-0.5,2.5-3.2,6.6-3.4,12.1s4.7,6.6,8.6,6.4c3.9-0.3,2.7-6.6,2-14.8c-0.3,0-0.5-10.1-2-10.6
							C222.2,163,222.1,163,222,163L222,163z M313.2,213.8c-6.2,0.3-6.5,7.4-7.3,8.7c-1.2,2.2,2.2,13.5,2,17.7s-4.7,5.2-9.4,9.6
							c-4.7,4.4,0.5,15.7,11.1,30.5l44,1.2l-1-34.4c0,0,4.7-4.2-20.4-23.9C322.8,215.9,317,213.7,313.2,213.8z M165.7,230.1
							c-4-0.1-8.1,5.6-9.5,7.5c-1.5,2-6.1,4.9-16.7,9.4l-14.3,33.7l52.2,4.2c0,0,1.7-10.8-4.2-15.5c-5.9-4.7-17-5.7-18-13
							c-1-7.4,9.1-9.8,13.5-14c4.4-4.2,2-11.1-2.2-12.1C166.2,230.1,165.9,230.1,165.7,230.1L165.7,230.1z"/>
					</g>
				</g>
			</g>
			<path id="path5280" class="st3" d="M282.4,126.1c-4.7,0-8.9,0.9-11.4,3.1c-7.9,6.9-34.4,0.7-47.7,6.9s-13,37.4-14.5,43.8
				c-1.5,6.4-17.2,20.4-19.7,23.1c-2.5,2.7-13,7.1-19.2,8.4c-6.1,1.2-12.5,7.1-15.3,10.8c-2,2.7-7.3,6.4-10,8.1
				c-0.1,0.2-0.1,0.3-0.1,0.5c-0.1,0.5-0.2,1.1-0.4,1.6c4.9-1.6,11-8.1,16.4-13.4c6.1-6.1,19.7-7.6,27.3-11.3
				c7.6-3.7,14-19.4,26.1-23.4s20.9,11.6,23.9,18.2s1.7,12.5,3.7,16.7s10.8,11.6,11.3,13.3s-4.9,6.4-6.1,8.4
				c-1.2,2-10.3,6.9-11.6,8.6c-0.9,1.3-1.9,6.7-2.3,9.1c0.4-0.2,0.7-0.3,1.1-0.5c0.5-2.5,1.5-7,2.9-8.4c2-2,11.1-4.4,12.3-8.4
				c1.2-3.9,6.9-6.4,6.9-6.4s2.7,3.9,15.7,13.8c8.7,6.6,12.5,15.3,14.2,20.4c0.7,0.2,1.5,0.4,2,0.5c-1.2-4.3-4.8-16-8.8-20.4
				c-4.9-5.4-18.2-10.6-22.4-21.6s-24.1-33.7-17.2-39.6c6.9-5.9,16.2-3.9,28,7.4c11.8,11.3,45.5,5.7,56.8,3.7
				c9.8-1.7,20.5,14.6,23.5,25.6c0.6-2.1,1.1-3.9,1.6-5.7c-1.7-1.9-3.6-4.6-5.2-8.1c-3.7-8.4-11.8-13-11.8-13s8.6-4.9,14.5-7.6
				c1.6-0.7,3-1.6,4.1-2.6c-0.2-0.8-0.3-1.2-0.4-2.1c0-0.1-0.1-0.3-0.1-0.4c-4.7,5.5-18.9,9.5-21.3,10.8c-2.7,1.5-18,2.9-35.2,4.4
				c-17.2,1.5-26.3-7.4-33.7-14.5c-7.4-7.1-12.8-35.4-3-37.4c9.8-2,19.7,13.5,29.5,16.7s21.1-15.5,19.4-26.6
				C305.2,130.9,292.6,126.1,282.4,126.1L282.4,126.1z M229.9,139.1c1.3,0,5.8,1.6,6.5,2.3c2.2,2.5,2,7.1,0,7.9
				c-2,0.7-12.5,7.9-10.3,14s1.7,17.7-3.4,17.7s-7.9,0-9.8-2.5s-2-11.8,0-19.4s3.4-14.8,7.9-18C223.6,139,227.1,139.1,229.9,139.1
				L229.9,139.1z M243.2,211.1c0.2,0,1.9,3.5,4.6,6.9c2.9,3.7,3.2,8.1,3.2,8.1s-4.2-4.7-5.9-7.9S243.2,211.1,243.2,211.1
				C243.2,211.1,243.2,211.1,243.2,211.1L243.2,211.1z"/>
			<path id="path5319" class="st4" d="M247.1,113.2c6.1,0.5,12-2.2,10.6-6.4c-1.5-4.2-12.3-7.1-13-2.9S246.6,114.2,247.1,113.2z"/>
			<path id="path5321" class="st4" d="M233.4,97.9c-8.4-5.4-8.4-7.1-6.9-7.9c1.5-0.7,10.1,4.9,12.5,7.9
				C241.5,100.9,236.8,99.9,233.4,97.9z"/>
			<g>
				<g>
					<defs>
						<path id="SVGID_3_" d="M135.2,44.2c0,0,7.4,12.8,11.6,27.3s6.1,25.1,6.1,25.1s-5.4,12.5-8.1,24.4c-2.7,11.8-5.7,22.6-5.7,22.6
							s5.7,15.7,9.1,29.5c3.4,13.8,3.7,23.9,3.7,23.9s-3.9,10.1-7.4,23.9c-3.4,13.8-4.9,30.3-4.9,30.3s9.1-2,28,1.2
							s31.7,5.9,31.7,5.9s12.5-2.7,23.6-6.1s16-6.4,16-6.4s5.4,0.5,22.1,6.1s28.8,8.4,28.8,8.4s12.8-2.7,25.6-5.7s26.1-7.9,26.1-7.9
							s-0.7-4.9,4.2-24.1s8.6-27.6,8.6-27.6s-0.5-4.4-3.7-19.4c-3.2-15-9.8-29.3-9.8-29.3s1.7-10.3,6.6-23.4s10.1-26.3,10.1-26.3
							s-4.7-15-7.4-29.3S342.1,42,342.1,42s-23.9,8.8-31.2,10.3s-20.7,5.2-20.7,5.2s-9.6-4.2-21.6-8.4c-12-4.2-29.3-5.4-29.3-5.4
							s-3.2,3.4-21.6,7.9s-27.1,5.7-27.1,5.7s-18.2-8.8-31-11.3C146.8,43.4,136,43.9,135.2,44.2z"/>
					</defs>
					<clipPath id="SVGID_4_">
						<use xlink:href="#SVGID_3_"  style="overflow:visible;"/>
					</clipPath>
					<g id="g5373" transform="translate(0,-10)" class="st5">
						<path id="path5323" class="st4" d="M141.9,200.9c32.5-2.5,37.6-3.4,35.7-10.1s-8.6-23.1-22.6-22.1s-22.4-6.6-22.4-6.6"/>
						<path id="path5311" class="st6" d="M143.6,226.5c18-9.8,28.3-8.4,34.4-11.3s13-5.7,15.5-9.4s5.7-11.3,5.7-17.7
							c0-6.4-3.4-35.4,3.2-42.8s17-25.6,25.6-22.9s12.1,9.6,21.6,9.3c9.6-0.3,21.4-3.9,23.9-12.1S258,104,257.7,97.1
							c-0.3-6.9,5.4-14,19.9-16.7s23.1-11.3,23.1-11.3"/>
						<path id="path5313" class="st4" d="M140.6,210.5c15-1.5,21.9,3.4,31,1.7s13-2.9,17.5-5.7c4.4-2.7,5.9-3.7,6.1-6.4
							c0.3-2.7,1-12.3-2.9-21.6c-3.9-9.4-12.3-31-8.1-38.1c4.2-7.1,5.2-21.2,15.5-24.1s20.7-6.2,27.3-1.2s12.5,14,19.7,14.3
							c7.1,0.3,11.6-1.5,14.3-4.4s4.4-10.1,1.7-13.5c-2.7-3.4-15.3-5.4-17-9.3s-10.6-16.7-0.3-26.3s35.7-8.1,35.7-8.1"/>
						<path id="path5315" class="st4" d="M147.3,208.6c13.5,1,21.1,4.2,33-0.5s13.3-5.2,13.5-8.6s-0.3-15.5-2.9-19.7
							c-2.7-4.2-12.8-13.5-15.5-23.9s0.3-40.3,8.4-47.5c8.1-7.1,31.5-7.1,36.9-10.3c5.4-3.2,5.2-16.5,12.8-24.1
							c7.6-7.6,26.6-12,26.6-12"/>
						<path id="path5317" class="st4" d="M313.3,70.3c11.6,4.9,38.4,9.6,46.5,39.6"/>
						<path id="path5325" class="st4" d="M136,262.7c18.7-12.3,35.4-1.2,48.2-3.9s37.6-36.6,45.3-36.4c7.6,0.3,5.4-11.6,8.4-13
							s5.4,5.9,11.6,7.9s24.1-2.7,23.1-5.7s-6.9-7.6-5.4-8.4c1.5-0.7,8.4,4.9,12.5,3.4c4.2-1.5,43-1,47.7-13.3
							C332,181,348.5,180,348.5,180"/>
						<path id="path5327" class="st4" d="M202.6,281.9c13.3-11.3,22.9-24.6,28-26.6c5.2-2,12.5-3.7,15.5-7.9
							c2.9-4.2,2.5-10.6,5.2-11.8c2.7-1.2,3.7,5.7,8.6,5.9c4.9,0.3,36.2-4.9,42.1-11.6s31.7-12.3,32-14.3s-1-4.7,0.3-5.4
							s24.4-5.9,24.4-5.9"/>
						<path id="path5329" class="st4" d="M292.4,284.3c8.9-13.5,20.2-40.3,29-41.3s10.1-2.5,12.3-4.2c2.2-1.7,16.7,2.2,16.7,2.2"/>
					</g>
				</g>
			</g>
			<g>
				<g>
					<defs>
						<path id="SVGID_5_" d="M135.2,44.2c0,0,7.4,12.8,11.6,27.3s6.1,25.1,6.1,25.1s-5.4,12.5-8.1,24.4c-2.7,11.8-5.7,22.6-5.7,22.6
							s5.7,15.7,9.1,29.5c3.4,13.8,3.7,23.9,3.7,23.9s-3.9,10.1-7.4,23.9c-3.4,13.8-4.9,30.3-4.9,30.3s9.1-2,28,1.2
							s31.7,5.9,31.7,5.9s12.5-2.7,23.6-6.1s16-6.4,16-6.4s5.4,0.5,22.1,6.1s28.8,8.4,28.8,8.4s12.8-2.7,25.6-5.7s26.1-7.9,26.1-7.9
							s-0.7-4.9,4.2-24.1s8.6-27.6,8.6-27.6s-0.5-4.4-3.7-19.4c-3.2-15-9.8-29.3-9.8-29.3s1.7-10.3,6.6-23.4s10.1-26.3,10.1-26.3
							s-4.7-15-7.4-29.3S342.1,42,342.1,42s-23.9,8.8-31.2,10.3s-20.7,5.2-20.7,5.2s-9.6-4.2-21.6-8.4c-12-4.2-29.3-5.4-29.3-5.4
							s-3.2,3.4-21.6,7.9s-27.1,5.7-27.1,5.7s-18.2-8.8-31-11.3C146.8,43.4,136,43.9,135.2,44.2z"/>
					</defs>
					<clipPath id="SVGID_6_">
						<use xlink:href="#SVGID_5_"  style="overflow:visible;"/>
					</clipPath>
					<g id="g5400" transform="translate(0,-10)" class="st7">
						<path id="path5387" class="st8" d="M183.2,71.8l-8.4,27.8l17.7,6.2l7.6,35.7l-20.7,21.9l8.9,10.3l-11.8,11.3l0.5,4.4
							l19.9,24.1l13.8-6.6l20.2,18.2l-10.3,27.8l10.1,8.4l-2.7,12.8"/>
						<path id="path5389" class="st8" d="M230.4,260.9l12.3-27.3l10.8-6.9l27.1,15.5l20.2-3.7l-0.3-15.5l-10.1-5.9l12.5-25.8
							l5.7-3.7l38.1-9.8"/>
					</g>
				</g>
			</g>
		</g>
		<g id="layer1" transform="translate(0,192)">
			
				<linearGradient id="path3834-49_1_" gradientUnits="userSpaceOnUse" x1="339.9996" y1="113.0975" x2="142.072" y2="-167.6187" gradientTransform="matrix(1 0 0 1 0 -8)">
				<stop  offset="0" style="stop-color:#000000"/>
				<stop  offset="1" style="stop-color:#000000;stop-opacity:0"/>
			</linearGradient>
			<path id="path3834-49" class="st9" d="M135.2-137.8c0,0,7.4,12.8,11.6,27.3s6.1,25.1,6.1,25.1s-5.4,12.5-8.1,24.3
				c-2.7,11.8-5.7,22.6-5.7,22.6s5.7,15.7,9.1,29.5c3.4,13.8,3.7,23.9,3.7,23.9S148,25,144.6,38.8S139.6,69,139.6,69s9.1-2,28,1.2
				c18.9,3.2,31.7,5.9,31.7,5.9S212,73.5,223,70s16-6.4,16-6.4s5.4,0.5,22.1,6.2c16.7,5.7,28.8,8.4,28.8,8.4s12.8-2.7,25.6-5.7
				c12.8-2.9,26.1-7.9,26.1-7.9s-0.7-4.9,4.2-24.1s8.6-27.5,8.6-27.5s-0.5-4.4-3.7-19.4s-9.8-29.3-9.8-29.3s1.7-10.3,6.6-23.4
				s10.1-26.3,10.1-26.3s-4.7-15-7.4-29.3s-8.1-25.3-8.1-25.3s-23.9,8.9-31.2,10.3c-7.4,1.5-20.7,5.2-20.7,5.2s-9.6-4.2-21.6-8.4
				c-12-4.2-29.3-5.4-29.3-5.4s-3.2,3.4-21.6,7.9c-18.4,4.4-27.1,5.7-27.1,5.7s-18.2-8.9-31-11.3C146.8-138.6,136-138.1,135.2-137.8
				z"/>
		</g>
		<g id="layer3">
			<g id="g4808" transform="translate(0,182)" class="st10">
				
					<linearGradient id="path3834-4-9_1_" gradientUnits="userSpaceOnUse" x1="338.0224" y1="-110.8831" x2="291.0424" y2="-64.0107" gradientTransform="matrix(1 0 0 1 0 2)">
					<stop  offset="0" style="stop-color:#FFFFFF"/>
					<stop  offset="1" style="stop-color:#FFFFFF;stop-opacity:0"/>
				</linearGradient>
				<path id="path3834-4-9" class="st11" d="M342.1-130.1c0,0-23.9,8.8-31.2,10.3c-7.4,1.5-20.7,5.2-20.7,5.2
					c4.8-1.3,11.3,44.7,14,51.4l-0.1,0.3c11.6-4,50.4-4.7,53.4-12.6c0,0-4.7-15-7.4-29.3S342.1-130.1,342.1-130.1z"/>
				
					<linearGradient id="path3834-7-2-4-9_1_" gradientUnits="userSpaceOnUse" x1="170.0813" y1="-76.8426" x2="174.4164" y2="-13.8439" gradientTransform="matrix(1 0 0 1 0 2)">
					<stop  offset="0" style="stop-color:#FFFFFF"/>
					<stop  offset="1" style="stop-color:#FFFFFF;stop-opacity:0"/>
				</linearGradient>
				<path id="path3834-7-2-4-9" class="st12" d="M152.9-75.4c0,0-5.4,12.5-8.1,24.3c-2.7,11.8-5.7,22.6-5.7,22.6l49.8,16l15.5-58
					L152.9-75.4z"/>
				
					<linearGradient id="path3834-7-26-9-7_1_" gradientUnits="userSpaceOnUse" x1="168.3789" y1="58.3275" x2="204.0135" y2="34.9605" gradientTransform="matrix(1 0 0 1 0 2)">
					<stop  offset="0" style="stop-color:#FFFFFF"/>
					<stop  offset="1" style="stop-color:#FFFFFF;stop-opacity:0"/>
				</linearGradient>
				<path id="path3834-7-26-9-7" class="st13" d="M152,24.9c0,0-3.9,10.1-7.4,23.9S139.7,79,139.7,79s0.1,0,0.4-0.1
					c2-0.3,11-1.5,27.6,1.3c18.9,3.2,31.7,5.9,31.7,5.9l1.4-51.7l-0.7,0.1L152,24.9z"/>
				
					<linearGradient id="path3834-4-9-6_1_" gradientUnits="userSpaceOnUse" x1="228.1186" y1="-112.1395" x2="211.7003" y2="-71.893" gradientTransform="matrix(1 0 0 1 0 2)">
					<stop  offset="0" style="stop-color:#FFFFFF"/>
					<stop  offset="1" style="stop-color:#FFFFFF;stop-opacity:0"/>
				</linearGradient>
				<path id="path3834-4-9-6" class="st14" d="M239.3-128.3c0,0-3.2,3.4-21.6,7.9s-27.1,5.7-27.1,5.7c5.1,14.5,11.8,28.8,14,44
					l-0.1,0.3l47.3-3.9l1.1,0.3C249.6-87.2,245.2-127.8,239.3-128.3z"/>
				
					<linearGradient id="path3834-7-26-0-0-9_1_" gradientUnits="userSpaceOnUse" x1="246.2115" y1="-26.4015" x2="192.8364" y2="35.9207" gradientTransform="matrix(1 0 0 1 0 2)">
					<stop  offset="0" style="stop-color:#FFFFFF"/>
					<stop  offset="1" style="stop-color:#FFFFFF;stop-opacity:0"/>
				</linearGradient>
				<path id="path3834-7-26-0-0-9" class="st15" d="M242.1-27.8l-52.8,15.5l-0.3-0.1l-0.1,0.5l12.1,45.8l0,0.7l48.7-8.7l0.5,0.2
					l0-0.1L242-27.5L242.1-27.8L242.1-27.8z"/>
				
					<linearGradient id="path3834-7-2-4-3_1_" gradientUnits="userSpaceOnUse" x1="298.8119" y1="-79.9631" x2="252.8158" y2="-16.6262" gradientTransform="matrix(1 0 0 1 0 2)">
					<stop  offset="0" style="stop-color:#FFFFFF"/>
					<stop  offset="1" style="stop-color:#FFFFFF;stop-opacity:0"/>
				</linearGradient>
				<path id="path3834-7-2-4-3" class="st16" d="M252.9-74.1c0.2,0.9,0.5,1.7,0.7,2.3l-11.5,43.9l0.1,0l51,17.1l11-52.1
					c-0.4,0.1-0.7,0.2-1,0.4L252.9-74.1L252.9-74.1L252.9-74.1z"/>
				
					<linearGradient id="path3834-7-26-9-85_1_" gradientUnits="userSpaceOnUse" x1="292.8581" y1="22.8203" x2="252.9805" y2="78.7781" gradientTransform="matrix(1 0 0 1 0 2)">
					<stop  offset="0" style="stop-color:#FFFFFF"/>
					<stop  offset="1" style="stop-color:#FFFFFF;stop-opacity:0"/>
				</linearGradient>
				<path id="path3834-7-26-9-85" class="st17" d="M249.9,25.9L239,73.6c0,0,5.4,0.5,22.1,6.2c2.1,0.7,4.1,1.4,6,2s3.8,1.2,5.5,1.7
					c10.5,3.2,17.2,4.7,17.2,4.7l12.5-44.7c-0.5,0.2-1,0.4-1.5,0.5L249.9,25.9z"/>
				
					<linearGradient id="path3834-7-26-0-0-3_1_" gradientUnits="userSpaceOnUse" x1="337.855" y1="-27.1123" x2="306.6172" y2="42.0969" gradientTransform="matrix(1 0 0 1 0 2)">
					<stop  offset="0" style="stop-color:#FFFFFF"/>
					<stop  offset="1" style="stop-color:#FFFFFF;stop-opacity:0"/>
				</linearGradient>
				<path id="path3834-7-26-0-0-3" class="st18" d="M340.9-25.8c-15.4,6.2-31.2,11-47.3,15.2l-0.4-0.1l9.4,54.1l0,0.1
					c17.5-6.3,34.8-13.2,51.9-20.5c0,0-0.5-4.4-3.7-19.4C347.5-11.5,340.9-25.8,340.9-25.8z"/>
			</g>
			<g id="g4818" transform="translate(0,182)" class="st19">
				
					<linearGradient id="path3834-4-9-1_1_" gradientUnits="userSpaceOnUse" x1="220.9193" y1="-47.9386" x2="137.0441" y2="-131.86" gradientTransform="matrix(1 0 0 1 0 2)">
					<stop  offset="0" style="stop-color:#000000"/>
					<stop  offset="1" style="stop-color:#000000;stop-opacity:0"/>
				</linearGradient>
				<path id="path3834-4-9-1" class="st20" d="M139.9-128.1c-1.1,0-1.9,0-2.7,0.1c-0.4,0-0.8,0-1.1,0.1c0,0-0.1,0-0.1,0
					c-0.4,0-0.6,0.1-0.7,0.1c0,0,7.4,12.8,11.6,27.3s6.1,25.1,6.1,25.1l50.6,5l0.9-0.1l0.1-0.3c-2.2-15.2-8.9-29.6-14-44
					c0,0-18.2-8.8-31-11.3c-1-0.2-2-0.4-2.9-0.5c-0.6-0.1-1.1-0.2-1.7-0.3c-0.2,0-0.4-0.1-0.7-0.1c-1.3-0.2-2.6-0.3-3.8-0.5
					c-0.7-0.1-1.4-0.1-2.1-0.2c-0.7-0.1-1.3-0.1-2-0.2c-1-0.1-1.9-0.1-2.7-0.2C142.3-128,141-128,139.9-128.1L139.9-128.1
					L139.9-128.1z"/>
				
					<linearGradient id="path3834-7-26-0-0-7_1_" gradientUnits="userSpaceOnUse" x1="181.7449" y1="-64.6012" x2="166.9868" y2="18.0442" gradientTransform="matrix(1 0 0 1 0 2)">
					<stop  offset="0" style="stop-color:#000000"/>
					<stop  offset="1" style="stop-color:#000000;stop-opacity:0"/>
				</linearGradient>
				<path id="path3834-7-26-0-0-7" class="st21" d="M139.2-28.5c0,0,5.7,15.7,9.1,29.5c3.4,13.8,3.7,23.9,3.7,23.9l48.2,9.7l0.7-0.1
					l0-0.7L188.9-12l0.1-0.5L139.2-28.5z"/>
				
					<linearGradient id="path3834-7-2-4-6_1_" gradientUnits="userSpaceOnUse" x1="193.5726" y1="-109.5736" x2="230.5908" y2="-22.5009" gradientTransform="matrix(1 0 0 1 0 2)">
					<stop  offset="0" style="stop-color:#000000"/>
					<stop  offset="1" style="stop-color:#000000;stop-opacity:0"/>
				</linearGradient>
				<path id="path3834-7-2-4-6" class="st22" d="M251.8-74.3l-47.2,3.9h-0.1l-15.5,58l0.3,0.1l52.8-15.5l11.5-43.9
					c-0.2-0.6-0.4-1.4-0.7-2.3L251.8-74.3L251.8-74.3z"/>
				
					<linearGradient id="path3834-7-26-9-8_1_" gradientUnits="userSpaceOnUse" x1="171.5804" y1="9.8954" x2="239.6829" y2="66.4681" gradientTransform="matrix(1 0 0 1 0 2)">
					<stop  offset="0" style="stop-color:#000000"/>
					<stop  offset="1" style="stop-color:#000000;stop-opacity:0"/>
				</linearGradient>
				<path id="path3834-7-26-9-8" class="st23" d="M249.5,25.8l-48.7,8.7l-1.4,51.7c0,0,12.5-2.7,23.6-6.2s16-6.4,16-6.4l11-47.7
					L249.5,25.8z"/>
				
					<linearGradient id="path3834-4-9-2_1_" gradientUnits="userSpaceOnUse" x1="160.3972" y1="-109.9918" x2="303.7968" y2="-93.7578" gradientTransform="matrix(1 0 0 1 0 2)">
					<stop  offset="0" style="stop-color:#000000"/>
					<stop  offset="1" style="stop-color:#000000;stop-opacity:0"/>
				</linearGradient>
				<path id="path3834-4-9-2" class="st24" d="M239.3-128.3c5.9,0.5,10.3,41.1,13.6,54.2l50.3,11.6c0.3-0.1,0.6-0.3,1-0.4l0.1-0.3
					c-2.8-6.8-9.2-52.7-14-51.4c0,0-0.6-0.3-1.7-0.7c-3.3-1.4-10.9-4.5-20-7.7C256.5-127.1,239.3-128.3,239.3-128.3z"/>
				
					<linearGradient id="path3834-7-26-0-0-0_1_" gradientUnits="userSpaceOnUse" x1="170.3318" y1="-76.9482" x2="290.3643" y2="20.9471" gradientTransform="matrix(1 0 0 1 0 2)">
					<stop  offset="0" style="stop-color:#000000"/>
					<stop  offset="1" style="stop-color:#000000;stop-opacity:0"/>
				</linearGradient>
				<path id="path3834-7-26-0-0-0" class="st25" d="M242.2-27.9L242.2-27.9l-0.2,0.4l8.1,52.4l-0.2,1L301,44c0.5-0.2,1-0.4,1.5-0.5
					l0-0.1l-9.4-54.1L242.2-27.9L242.2-27.9z"/>
				
					<linearGradient id="path3834-7-26-9-9_1_" gradientUnits="userSpaceOnUse" x1="290.0968" y1="12.873" x2="341.5042" y2="78.0546" gradientTransform="matrix(1 0 0 1 0 2)">
					<stop  offset="0" style="stop-color:#000000"/>
					<stop  offset="1" style="stop-color:#000000;stop-opacity:0"/>
				</linearGradient>
				<path id="path3834-7-26-9-9" class="st26" d="M354.4,23c-17.1,7.3-34.4,14.3-51.9,20.5L290,88.1c0,0,12.8-2.7,25.6-5.7
					c12.8-2.9,26.1-7.9,26.1-7.9s-0.7-4.9,4.2-24.1S354.4,23,354.4,23z"/>
				
					<linearGradient id="path3834-7-2-4-5_1_" gradientUnits="userSpaceOnUse" x1="258.7888" y1="-111.4909" x2="349.5511" y2="-20.9745" gradientTransform="matrix(1 0 0 1 0 2)">
					<stop  offset="0" style="stop-color:#000000"/>
					<stop  offset="1" style="stop-color:#000000;stop-opacity:0"/>
				</linearGradient>
				<path id="path3834-7-2-4-5" class="st27" d="M357.6-75.4c-3,7.9-41.8,8.6-53.4,12.6l-11,52.1l0.4,0.1c16.1-4.2,31.9-9,47.3-15.2
					c0,0,1.7-10.3,6.6-23.4C352.4-62.2,357.6-75.4,357.6-75.4z"/>
			</g>
		</g>
		<g>
			
				<linearGradient id="SVGID_7_" gradientUnits="userSpaceOnUse" x1="153.41" y1="234.1" x2="168.415" y2="219.095" gradientTransform="matrix(1 0 0 -1 0 500)">
				<stop  offset="0" style="stop-color:#F9E295"/>
				<stop  offset="0.125" style="stop-color:#F7DD84"/>
				<stop  offset="0.2058" style="stop-color:#FFFFFF"/>
				<stop  offset="0.3011" style="stop-color:#F4CE51"/>
				<stop  offset="0.3412" style="stop-color:#F9E7AA"/>
				<stop  offset="1" style="stop-color:#EFBB0E"/>
			</linearGradient>
			<polygon class="st28" points="166.1,283.2 151.1,268.2 155.7,263.6 170.7,278.6 			"/>
			
				<linearGradient id="SVGID_8_" gradientUnits="userSpaceOnUse" x1="185.9449" y1="270.3851" x2="204.705" y2="251.6249" gradientTransform="matrix(1 0 0 -1 0 500)">
				<stop  offset="0" style="stop-color:#2D3335"/>
				<stop  offset="0.5" style="stop-color:#4C464A"/>
				<stop  offset="1" style="stop-color:#384042"/>
			</linearGradient>
			<polygon class="st29" points="236.2,216.9 217.4,198.1 154.5,261.1 173.2,279.9 			"/>
			
				<linearGradient id="SVGID_9_" gradientUnits="userSpaceOnUse" x1="221.1575" y1="302.1175" x2="236.4375" y2="286.8375" gradientTransform="matrix(1 0 0 -1 0 500)">
				<stop  offset="0" style="stop-color:#F9E295"/>
				<stop  offset="0.125" style="stop-color:#F7DD84"/>
				<stop  offset="0.2058" style="stop-color:#FFFFFF"/>
				<stop  offset="0.3011" style="stop-color:#F4CE51"/>
				<stop  offset="0.3412" style="stop-color:#F9E7AA"/>
				<stop  offset="1" style="stop-color:#EFBB0E"/>
			</linearGradient>
			<polygon class="st30" points="238,211.6 222.8,196.3 219.6,199.5 234.8,214.8 			"/>
			
				<linearGradient id="SVGID_10_" gradientUnits="userSpaceOnUse" x1="232.93" y1="307.72" x2="242.04" y2="298.61" gradientTransform="matrix(1 0 0 -1 0 500)">
				<stop  offset="0" style="stop-color:#2D3335"/>
				<stop  offset="0.5" style="stop-color:#4C464A"/>
				<stop  offset="1" style="stop-color:#384042"/>
			</linearGradient>
			<polygon class="st31" points="248.7,194.7 239.6,185.6 226.2,199 235.3,208.1 			"/>
			<path class="st32" d="M344.5,87.8c-27.1-27.1-71-27.1-98.1,0s-27.1,71,0,98.1s71,27.1,98.1,0S371.5,114.9,344.5,87.8z
				 M342.4,183.8c-26,25.9-68,25.9-94,0s-25.9-68,0-94s68-26,94,0C368.4,115.8,368.4,157.9,342.4,183.8z"/>
			<g>
				<g>
					<defs>
						<circle id="SVGID_11_" cx="295.4" cy="136.8" r="65"/>
					</defs>
					<clipPath id="SVGID_12_">
						<use xlink:href="#SVGID_11_"  style="overflow:visible;"/>
					</clipPath>
					<g class="st33">
						<g>
							<rect x="183.4" y="24.8" class="st34" width="74.7" height="224.1"/>
						</g>
						<g>
							<rect x="258.1" y="24.8" class="st35" width="74.7" height="224.1"/>
						</g>
						<g>
							<rect x="332.8" y="24.8" class="st36" width="74.7" height="224.1"/>
						</g>
					</g>
				</g>
			</g>
			
				<linearGradient id="SVGID_13_" gradientUnits="userSpaceOnUse" x1="250.4969" y1="320.6554" x2="243.6324" y2="307.3557" gradientTransform="matrix(1 0 0 -1 0 500)">
				<stop  offset="0" style="stop-color:#2D3335"/>
				<stop  offset="0.5" style="stop-color:#4C464A"/>
				<stop  offset="1" style="stop-color:#384042"/>
			</linearGradient>
			<path class="st37" d="M245.8,186.5c-4.8-4.8-8.7-10-11.8-15.7l-2.7,1.7c3.2,5.8,7.3,11.3,12.2,16.2c5.4,5.4,11.4,9.8,17.9,13.1
				l1.6-2.7C256.8,195.9,251,191.7,245.8,186.5z"/>
		</g>
		<g>
			<g>
				<g id="layer5">
					
						<linearGradient id="path6587_1_" gradientUnits="userSpaceOnUse" x1="262.026" y1="73.9632" x2="314.4844" y2="179.6124" gradientTransform="matrix(1 0 0 1 0 -8)">
						<stop  offset="0" style="stop-color:#FFFFFF"/>
						<stop  offset="1" style="stop-color:#FFFFFF;stop-opacity:0"/>
					</linearGradient>
					<path id="path6587" class="st38" d="M255.4,88.4c40-31.7,76.9-12.5,76.5,5.2s-55.7,69.2-75.1,65.1
						C237.3,154.5,231.8,106.2,255.4,88.4z"/>
				</g>
			</g>
		</g>
	</g>
	<g>
		<path class="st39" d="M57.3,384.3c-2.9,0-5.6-0.6-8-1.7c-2.4-1.1-4.5-2.7-6.2-4.5c-1.7-1.9-3-4-4-6.4s-1.4-4.9-1.4-7.5
			c0-2.6,0.5-5.1,1.5-7.5s2.3-4.5,4.1-6.4c1.8-1.8,3.8-3.3,6.3-4.4c2.4-1.1,5-1.6,7.9-1.6c2.9,0,5.6,0.6,8,1.7
			c2.4,1.1,4.5,2.7,6.2,4.6c1.7,1.9,3,4,3.9,6.5s1.4,4.9,1.4,7.3c0,2.6-0.5,5.1-1.5,7.5s-2.3,4.5-4.1,6.4c-1.7,1.8-3.8,3.3-6.2,4.4
			C62.8,383.8,60.1,384.3,57.3,384.3z M47,364.3c0,1.5,0.2,3,0.7,4.4c0.4,1.4,1.1,2.7,2,3.8c0.9,1.1,2,2,3.3,2.7
			c1.3,0.7,2.8,1,4.5,1c1.7,0,3.3-0.4,4.6-1.1c1.3-0.7,2.4-1.6,3.2-2.8c0.8-1.1,1.5-2.4,1.9-3.8s0.6-2.9,0.6-4.4
			c0-1.5-0.2-3-0.7-4.4c-0.4-1.4-1.1-2.7-2-3.8s-2-2-3.3-2.6s-2.8-1-4.4-1c-1.7,0-3.3,0.3-4.5,1s-2.3,1.6-3.2,2.7
			c-0.9,1.1-1.5,2.4-2,3.8C47.2,361.4,47,362.8,47,364.3z"/>
		<path class="st39" d="M100,384.6c-2.2,0-4.2-0.5-5.8-1.4c-1.6-0.9-2.9-2.2-3.8-3.9v16.6h-8.9v-41h7.7v4.7c1.1-1.7,2.4-3,4-3.9
			c1.6-0.9,3.5-1.4,5.8-1.4c2,0,3.8,0.4,5.4,1.2s3.1,1.8,4.3,3.2c1.2,1.4,2.2,3,2.8,4.8c0.7,1.8,1,3.8,1,5.9c0,2.2-0.3,4.2-0.9,6.1
			s-1.5,3.5-2.6,4.8s-2.4,2.4-4,3.2C103.5,384.2,101.8,384.6,100,384.6z M97,377c1,0,1.8-0.2,2.6-0.6c0.8-0.4,1.5-1,2.1-1.7
			c0.6-0.7,1.1-1.5,1.4-2.5c0.3-1,0.5-1.9,0.5-3c0-1.1-0.2-2.1-0.5-3c-0.3-0.9-0.8-1.7-1.4-2.4c-0.6-0.7-1.3-1.2-2.2-1.6
			s-1.8-0.6-2.8-0.6c-1.2,0-2.4,0.4-3.5,1.1s-2,1.7-2.6,2.9v6c0.6,1.5,1.5,2.7,2.7,3.7C94.3,376.5,95.6,377,97,377z"/>
		<path class="st39" d="M131.1,384.6c-2.4,0-4.6-0.4-6.6-1.2s-3.6-1.9-4.9-3.3s-2.4-3-3.1-4.8c-0.7-1.8-1.1-3.7-1.1-5.6
			c0-2.1,0.3-4.1,1.1-6c0.7-1.9,1.7-3.5,3.1-4.9c1.3-1.4,3-2.5,4.9-3.3c1.9-0.8,4.2-1.2,6.6-1.2c2.5,0,4.7,0.4,6.6,1.2
			c1.9,0.8,3.6,1.9,4.9,3.3c1.3,1.4,2.3,3,3,4.8s1,3.7,1,5.7c0,0.5,0,1-0.1,1.5s-0.1,0.9-0.2,1.3h-21.6c0.2,2,0.9,3.5,2.1,4.5
			c1.3,1,2.7,1.5,4.4,1.5c1.3,0,2.6-0.3,3.8-1c1.2-0.6,2-1.5,2.4-2.6l7.6,2.1c-1.1,2.3-2.9,4.2-5.3,5.6
			C137.3,383.8,134.4,384.6,131.1,384.6z M137.3,366.6c-0.2-1.9-0.9-3.3-2-4.4c-1.1-1.1-2.6-1.6-4.3-1.6c-1.7,0-3.2,0.5-4.3,1.6
			c-1.1,1.1-1.8,2.5-2,4.4L137.3,366.6L137.3,366.6z"/>
		<path class="st39" d="M178.9,384H170v-16.4c0-1.9-0.4-3.3-1.1-4.2c-0.7-0.9-1.7-1.3-2.9-1.3c-0.6,0-1.3,0.1-1.9,0.4
			s-1.2,0.6-1.8,1.1s-1.1,1-1.6,1.6s-0.8,1.3-1.1,2.1V384h-8.9v-29.2h8v4.9c1.1-1.7,2.6-3.1,4.6-4c2-1,4.2-1.4,6.8-1.4
			c1.9,0,3.4,0.3,4.6,1s2,1.6,2.7,2.7c0.6,1.1,1.1,2.3,1.3,3.6s0.3,2.6,0.3,3.8L178.9,384L178.9,384z"/>
		<path class="st39" d="M209.1,356.1c-0.1-0.1-0.5-0.4-1.2-0.8c-0.7-0.4-1.5-0.8-2.5-1.3s-2.1-0.8-3.3-1.2c-1.2-0.3-2.4-0.5-3.6-0.5
			c-3.3,0-4.9,1.1-4.9,3.3c0,0.7,0.2,1.2,0.5,1.7c0.4,0.4,0.9,0.8,1.6,1.2c0.7,0.4,1.6,0.7,2.6,1c1,0.3,2.2,0.6,3.6,1
			c1.9,0.5,3.6,1.1,5.1,1.7c1.5,0.6,2.8,1.4,3.9,2.3s1.9,2,2.4,3.3c0.6,1.3,0.9,2.9,0.9,4.7c0,2.2-0.4,4.1-1.3,5.6
			c-0.8,1.5-1.9,2.8-3.3,3.7s-2.9,1.6-4.7,2.1s-3.6,0.6-5.5,0.6c-1.4,0-2.9-0.1-4.4-0.3s-3-0.5-4.4-1c-1.4-0.4-2.9-0.9-4.2-1.5
			c-1.4-0.6-2.6-1.3-3.8-2.1l4-8c0.1,0.2,0.6,0.5,1.4,1.1c0.8,0.5,1.8,1,3,1.6s2.6,1,4,1.4s3,0.6,4.5,0.6c3.2,0,4.8-1,4.8-3
			c0-0.7-0.2-1.4-0.7-1.8c-0.5-0.5-1.1-0.9-2-1.3c-0.9-0.4-1.9-0.8-3-1.1s-2.4-0.7-3.8-1.1c-1.8-0.6-3.4-1.2-4.7-1.8
			c-1.3-0.6-2.4-1.4-3.3-2.3s-1.5-1.8-1.9-3c-0.4-1.1-0.6-2.4-0.6-3.9c0-2.1,0.4-3.9,1.2-5.5c0.8-1.6,1.8-2.9,3.2-4
			c1.3-1.1,2.9-1.9,4.6-2.5s3.6-0.8,5.6-0.8c1.4,0,2.7,0.1,4.1,0.4s2.6,0.6,3.8,1c1.2,0.4,2.4,0.9,3.4,1.4s2,1,2.9,1.6L209.1,356.1z
			"/>
		<path class="st39" d="M237.5,382.5c-1.2,0.5-2.6,1-4.2,1.5s-3.2,0.7-4.8,0.7c-1.1,0-2.2-0.1-3.1-0.4s-1.8-0.7-2.6-1.3
			c-0.7-0.6-1.3-1.4-1.8-2.4c-0.4-1-0.6-2.2-0.6-3.6v-15.2h-3.7v-6.7h3.7v-9.3h8.9v9.3h5.9v6.7h-5.9v12.2c0,1,0.2,1.7,0.7,2.1
			c0.5,0.4,1.1,0.6,1.8,0.6c0.7,0,1.4-0.1,2.1-0.3c0.7-0.2,1.3-0.5,1.8-0.7L237.5,382.5z"/>
		<path class="st39" d="M259.5,362.4c-2.1,0-4.1,0.4-5.8,1.1c-1.7,0.7-3,1.7-3.8,3V384H241v-29.2h8.2v5.9c1-2,2.3-3.5,3.9-4.6
			c1.6-1.1,3.2-1.7,5-1.7c0.4,0,0.7,0,0.9,0c0.2,0,0.4,0,0.6,0.1L259.5,362.4L259.5,362.4z"/>
		<path class="st39" d="M275.7,384.6c-2.5,0-4.6-0.4-6.6-1.2c-2-0.8-3.6-1.9-5-3.3s-2.4-3-3.1-4.8c-0.7-1.8-1.1-3.7-1.1-5.6
			c0-2.1,0.4-4.1,1.1-6c0.7-1.9,1.7-3.5,3.1-4.9c1.3-1.4,3-2.5,4.9-3.3c2-0.8,4.2-1.2,6.6-1.2c2.5,0,4.7,0.4,6.6,1.2
			c1.9,0.8,3.6,1.9,4.9,3.3c1.3,1.4,2.3,3,3,4.8s1,3.7,1,5.7c0,0.5,0,1-0.1,1.5s-0.1,0.9-0.2,1.3h-21.6c0.1,2,0.9,3.5,2.1,4.5
			s2.7,1.5,4.4,1.5c1.3,0,2.5-0.3,3.8-1s2-1.5,2.4-2.6l7.6,2.1c-1.1,2.3-2.9,4.2-5.3,5.6C282,383.8,279.1,384.6,275.7,384.6z
			 M281.9,366.6c-0.2-1.9-0.9-3.3-2-4.4c-1.1-1.1-2.6-1.6-4.3-1.6c-1.7,0-3.2,0.5-4.3,1.6c-1.1,1.1-1.8,2.5-2,4.4L281.9,366.6
			L281.9,366.6z"/>
		<path class="st39" d="M309.3,384.6c-2.5,0-4.6-0.4-6.6-1.2c-2-0.8-3.6-1.9-5-3.3s-2.4-3-3.1-4.8c-0.7-1.8-1.1-3.7-1.1-5.6
			c0-2.1,0.4-4.1,1.1-6c0.7-1.9,1.7-3.5,3.1-4.9c1.3-1.4,3-2.5,4.9-3.3c2-0.8,4.2-1.2,6.6-1.2c2.5,0,4.7,0.4,6.6,1.2
			c1.9,0.8,3.6,1.9,4.9,3.3c1.3,1.4,2.3,3,3,4.8s1,3.7,1,5.7c0,0.5,0,1-0.1,1.5s-0.1,0.9-0.2,1.3h-21.6c0.1,2,0.9,3.5,2.1,4.5
			s2.7,1.5,4.4,1.5c1.3,0,2.5-0.3,3.8-1s2-1.5,2.4-2.6l7.6,2.1c-1.1,2.3-2.9,4.2-5.3,5.6C315.6,383.8,312.7,384.6,309.3,384.6z
			 M315.5,366.6c-0.2-1.9-0.9-3.3-2-4.4c-1.1-1.1-2.6-1.6-4.3-1.6c-1.7,0-3.2,0.5-4.3,1.6c-1.1,1.1-1.8,2.5-2,4.4L315.5,366.6
			L315.5,366.6z"/>
		<path class="st39" d="M347.6,382.5c-1.2,0.5-2.6,1-4.2,1.5c-1.6,0.5-3.2,0.7-4.8,0.7c-1.1,0-2.2-0.1-3.1-0.4s-1.8-0.7-2.6-1.3
			c-0.7-0.6-1.3-1.4-1.8-2.4c-0.4-1-0.6-2.2-0.6-3.6v-15.2h-3.7v-6.7h3.7v-9.3h8.9v9.3h6v6.7h-6v12.2c0,1,0.2,1.7,0.7,2.1
			c0.5,0.4,1.1,0.6,1.8,0.6c0.7,0,1.4-0.1,2.1-0.3c0.7-0.2,1.3-0.5,1.8-0.7L347.6,382.5z"/>
		<path class="st39" d="M382.9,384v-23.6l-8.6,17.2h-4.9l-8.6-17.2V384h-9.1v-39.5h9.9l10.2,20.6l10.3-20.6h9.8V384H382.9z"/>
		<path class="st39" d="M406.9,384.6c-1.5,0-2.8-0.2-4-0.7s-2.3-1.1-3.2-2c-0.9-0.8-1.6-1.8-2.1-3s-0.8-2.4-0.8-3.7
			c0-1.5,0.3-2.8,0.9-4c0.6-1.2,1.5-2.2,2.6-3.1c1.1-0.9,2.4-1.5,4-2c1.5-0.5,3.2-0.7,5.1-0.7c1.2,0,2.4,0.1,3.6,0.3
			c1.1,0.2,2.1,0.5,3,0.9v-1.3c0-3.4-2-5.1-5.8-5.1c-1.6,0-3.1,0.3-4.6,0.8s-3,1.3-4.6,2.4l-2.6-5.6c1.9-1.3,3.9-2.2,6-2.8
			c2.1-0.6,4.3-1,6.6-1c4.4,0,7.8,1,10.2,3.1s3.6,5.1,3.6,9.1v7.5c0,0.9,0.1,1.5,0.4,1.9c0.3,0.4,0.8,0.6,1.5,0.6v7.5
			c-0.8,0.2-1.5,0.3-2.1,0.4c-0.6,0.1-1.2,0.1-1.7,0.1c-1.7,0-2.9-0.3-3.8-1s-1.4-1.6-1.6-2.8l-0.2-1.3c-1.3,1.7-2.9,3-4.6,3.8
			C410.8,384.1,408.9,384.6,406.9,384.6z M409.5,378.2c1,0,1.9-0.2,2.8-0.5s1.7-0.8,2.3-1.3c0.9-0.7,1.3-1.4,1.3-2.1v-2.8
			c-0.8-0.3-1.6-0.5-2.5-0.7s-1.8-0.3-2.5-0.3c-1.6,0-3,0.4-4,1.1s-1.6,1.7-1.6,2.9c0,1.1,0.4,2,1.2,2.6
			C407.2,377.8,408.3,378.2,409.5,378.2z"/>
		<path class="st39" d="M449.7,384.6c-2.2,0-4.1-0.5-5.8-1.4c-1.6-0.9-2.9-2.2-3.8-3.9v16.6h-8.9v-41h7.7v4.7c1.1-1.7,2.4-3,4-3.9
			c1.6-0.9,3.5-1.4,5.8-1.4c2,0,3.8,0.4,5.4,1.2c1.6,0.8,3.1,1.8,4.3,3.2s2.1,3,2.8,4.8c0.7,1.8,1,3.8,1,5.9c0,2.2-0.3,4.2-1,6.1
			s-1.5,3.5-2.6,4.8s-2.5,2.4-4,3.2C453.2,384.2,451.5,384.6,449.7,384.6z M446.7,377c1,0,1.8-0.2,2.6-0.6c0.8-0.4,1.5-1,2.1-1.7
			c0.6-0.7,1-1.5,1.4-2.5c0.3-1,0.5-1.9,0.5-3c0-1.1-0.2-2.1-0.5-3c-0.4-0.9-0.8-1.7-1.5-2.4c-0.6-0.7-1.4-1.2-2.2-1.6
			s-1.8-0.6-2.8-0.6c-1.2,0-2.4,0.4-3.5,1.1s-2,1.7-2.6,2.9v6c0.6,1.5,1.5,2.7,2.7,3.7S445.3,377,446.7,377z"/>
		<path class="st39" d="M172.5,425.5c0,1.7-0.4,3.2-1.1,4.5c-0.7,1.3-1.7,2.3-2.9,3.1c-1.2,0.8-2.6,1.5-4.3,1.9
			c-1.6,0.4-3.4,0.6-5.2,0.6h-19.2v-39.5h22c1.4,0,2.6,0.3,3.7,0.9c1.1,0.6,2.1,1.4,2.8,2.3s1.4,2,1.8,3.2c0.4,1.2,0.6,2.4,0.6,3.7
			c0,1.9-0.5,3.7-1.4,5.3s-2.4,2.9-4.3,3.8c2.3,0.7,4.1,1.9,5.4,3.6C171.9,420.7,172.5,422.9,172.5,425.5z M149,403.9v8.2h8.9
			c1,0,1.9-0.3,2.7-1s1.2-1.7,1.2-3.1c0-1.3-0.3-2.3-1-3s-1.5-1.1-2.5-1.1L149,403.9L149,403.9z M163.3,423.7c0-1.2-0.4-2.3-1.1-3.1
			c-0.7-0.9-1.6-1.3-2.7-1.3H149v8.6h10.1c1.2,0,2.2-0.4,2.9-1.2S163.3,425,163.3,423.7z"/>
		<path class="st39" d="M191.2,436.2c-2.4,0-4.6-0.4-6.6-1.2s-3.6-1.9-4.9-3.3c-1.4-1.4-2.4-3-3.1-4.8c-0.7-1.8-1.1-3.7-1.1-5.6
			c0-2.1,0.4-4.1,1.1-6c0.7-1.9,1.7-3.5,3.1-4.9c1.3-1.4,3-2.5,4.9-3.3c1.9-0.8,4.2-1.2,6.6-1.2c2.5,0,4.7,0.4,6.6,1.2
			c1.9,0.8,3.6,1.9,4.9,3.3c1.3,1.4,2.3,3,3,4.8s1,3.7,1,5.7c0,0.5,0,1-0.1,1.5s-0.1,0.9-0.2,1.3h-21.6c0.1,2,0.9,3.5,2.1,4.5
			c1.3,1,2.7,1.5,4.4,1.5c1.3,0,2.6-0.3,3.8-1c1.2-0.6,2-1.5,2.4-2.6l7.6,2.1c-1.1,2.3-2.9,4.2-5.3,5.6
			C197.4,435.5,194.5,436.2,191.2,436.2z M197.3,418.3c-0.2-1.9-0.9-3.3-2-4.4c-1.1-1.1-2.6-1.6-4.3-1.6c-1.7,0-3.2,0.5-4.3,1.6
			c-1.1,1.1-1.8,2.5-2,4.4L197.3,418.3L197.3,418.3z"/>
		<path class="st39" d="M210.7,395h8.9v30.2c0,2.2,0.9,3.3,2.8,3.3c0.4,0,0.9-0.1,1.5-0.2c0.5-0.1,1-0.3,1.5-0.6l1.2,6.7
			c-1.1,0.5-2.4,0.9-3.8,1.2c-1.4,0.3-2.8,0.5-4.1,0.5c-2.6,0-4.5-0.7-5.9-2c-1.4-1.3-2.1-3.3-2.1-5.8L210.7,395L210.7,395z"/>
		<path class="st39" d="M240.8,435.8c-1.9,0-3.7-0.4-5.3-1.2s-3-1.8-4.1-3.2c-1.1-1.3-2-2.9-2.6-4.7s-0.9-3.7-0.9-5.7
			c0-2.1,0.3-4.1,1-6c0.7-1.8,1.6-3.4,2.8-4.8s2.6-2.4,4.3-3.2s3.5-1.2,5.5-1.2c2.2,0,4.2,0.5,5.8,1.4s3,2.3,4,3.9v-4.8h7.7v27.2
			c0,2.2-0.4,4.2-1.3,6s-2,3.3-3.5,4.5c-1.5,1.2-3.3,2.2-5.3,2.9c-2.1,0.7-4.4,1-6.8,1c-3.1,0-5.8-0.5-8.1-1.5s-4.2-2.5-5.8-4.3
			l4.8-4.8c1.1,1.2,2.4,2.2,4,2.9s3.3,1.1,5.1,1.1c1.1,0,2.1-0.1,3.1-0.5c1-0.3,1.8-0.8,2.6-1.4c0.7-0.6,1.3-1.4,1.8-2.4
			c0.4-1,0.6-2.2,0.6-3.5v-2.8c-0.9,1.6-2.2,2.9-3.8,3.7C244.5,435.3,242.7,435.8,240.8,435.8z M243.8,428.7c1.4,0,2.6-0.4,3.7-1.1
			s1.9-1.7,2.5-2.9v-6.1c-0.6-1.6-1.5-2.8-2.7-3.7c-1.2-0.9-2.5-1.4-3.9-1.4c-1,0-1.8,0.2-2.6,0.6c-0.8,0.4-1.5,1-2.1,1.7
			s-1,1.6-1.3,2.5c-0.3,1-0.5,1.9-0.5,2.9c0,1.1,0.2,2.1,0.5,3c0.4,0.9,0.8,1.7,1.5,2.4c0.6,0.7,1.4,1.2,2.2,1.6
			C241.9,428.5,242.8,428.7,243.8,428.7z"/>
		<path class="st39" d="M265,403.1V395h8.9v8.1H265z M265,435.6v-29.2h8.9v29.2H265z"/>
		<path class="st39" d="M288.9,436.2c-3,0-5.3-0.9-6.8-2.8s-2.3-4.6-2.3-8.3v-18.7h8.9v16.7c0,1.8,0.4,3.1,1.1,4.1
			c0.7,1,1.7,1.4,3,1.4c1.2,0,2.3-0.3,3.5-1s2.1-1.7,3-3.3v-18h8.9v19.2c0,0.9,0.1,1.5,0.4,1.9c0.3,0.4,0.8,0.6,1.5,0.6v7.5
			c-0.9,0.2-1.6,0.3-2.2,0.4s-1.1,0.1-1.6,0.1c-3.2,0-5-1.2-5.5-3.7l-0.2-1.8c-1.3,1.9-3,3.4-5,4.3
			C293.5,435.8,291.3,436.2,288.9,436.2z"/>
		<path class="st39" d="M361.1,435.6h-8.9v-16.4c0-1.9-0.4-3.3-1.1-4.2c-0.7-0.9-1.6-1.3-2.7-1.3c-0.6,0-1.2,0.1-1.8,0.4
			s-1.2,0.6-1.7,1.1c-0.5,0.5-1,1-1.4,1.6c-0.4,0.6-0.8,1.3-1,2.1v16.7h-8.9v-16.4c0-1.9-0.4-3.3-1.1-4.2c-0.7-0.9-1.6-1.3-2.7-1.3
			c-1.2,0-2.4,0.5-3.5,1.4s-2,2.2-2.5,3.8v16.7h-8.9v-29.2h8v4.9c1.1-1.8,2.5-3.1,4.4-4.1c1.8-0.9,4-1.4,6.4-1.4
			c1.2,0,2.3,0.1,3.2,0.4c0.9,0.3,1.7,0.7,2.4,1.2c0.7,0.5,1.2,1.1,1.6,1.8c0.4,0.7,0.7,1.4,0.9,2.2c1.1-1.8,2.6-3.2,4.4-4.2
			s3.9-1.5,6.2-1.5c1.9,0,3.4,0.3,4.5,1s2,1.6,2.6,2.7c0.6,1.1,1,2.3,1.3,3.6s0.3,2.6,0.3,3.8L361.1,435.6L361.1,435.6z"/>
	</g>
</g>
</svg>
